<svg data-name="グループ 3149" xmlns="http://www.w3.org/2000/svg" width="183.831" height="116.549" viewBox="0 0 183.831 116.549">
    <path data-name="パス 1576" d="M700.517 1045.368c.05-.158-.55-.571-.645-.791a11.349 11.349 0 0 1-.235-3.049 16.642 16.642 0 0 0 1.847-1.348 10.387 10.387 0 0 0 2.287-3.019c1.182-2.367 1.254-6.022 1.437-8.588.152-2.132.38-4.31.38-6.448a13.882 13.882 0 0 0-.5-4.924c-.91-2.315-3.445-3.239-5.745-3.37a13.5 13.5 0 0 0-11.4 5.744 47.5 47.5 0 0 0-3.076 6.771s-1.028.118-1.291.175a2 2 0 0 0-1.377 1.73 5.263 5.263 0 0 0 1.612 4.485 5.919 5.919 0 0 0 1.466.732s.2 3.117.2 4.1c0 1.944.193 5.007-.469 6.859-.242.676-.74.57-1.113 1.172a5.958 5.958 0 0 0-.294 5.334c.892 1.871 2.633 2.426 4.514 2.931 3.487.937 8.906 1.633 11.694-1.348a6.1 6.1 0 0 0 1.319-4.6 23.324 23.324 0 0 1-.611-2.548z" transform="translate(-598.169 -1006.695)" style="fill-rule:evenodd;fill:#fcece5"/>
    <path data-name="パス 1577" d="m513.971 1060.983-2.064 3.949s-.537 3.118-.971 4.641c-.286 1-1.189 3.148-1.189 3.148s2.674 5.815 3.972 7.945a49.956 49.956 0 0 1 3.978 9.017c1.181 3.281 2.3 6.521 4.376 9.37.314.431 1.942 2.345 2.651 1.635 1.466-1.465.29-5.442.044-7.2-.337-2.423-.359-4.891-.8-7.292-.44-2.419-2.221-8.111-2.221-8.111l1.467-3.78a15.161 15.161 0 0 0 2.387.5 6.5 6.5 0 0 0 4.461-1.4c2.793-2.676 4.117-6.081 5.031-9.621.594-2.3.711-4.824 1.295-7.024a12.408 12.408 0 0 0-.529-7.475c-1.859-4.416-6.65-4.008-10.521-2.425-3.25 1.33-6.753 2.941-8.794 5.923-1.085 1.585-3.127 1.582-3.778 3.358-.442 1.214 1.205 4.842 1.205 4.842z" transform="translate(-470.91 -1030.271)" style="fill-rule:evenodd;fill:#fcece5"/>
    <path data-name="パス 1578" d="M462.632 1033.135a5.88 5.88 0 0 0 1.323-.915 5.551 5.551 0 0 0 1.477-3.017c.527-3.157-1.011-6.842-2.8-9.283-.923-1.257-2.333-3-3.844-3.544-.549-.2-1.938-.533-1.938-.533s-.959-2.25-2.059-2.8c-.778-.389-.721 1.091-.721 1.091a13.986 13.986 0 0 0-1.276-.969 10.18 10.18 0 0 0-2.286-.761c-2.475-.495-5.837.176-8.2.768a14.837 14.837 0 0 0-6.833 4.569c-1.675 1.915-3.024 4.643-5.253 5.979-1.587.953-2.857.128-3.282-1.925-.12-.578-.681.113-1.036.586a2.668 2.668 0 0 0 .187 3.091 2.209 2.209 0 0 0 1.557.7 1.446 1.446 0 0 1-.88 1.444c-1.034.564-2.775.006-4.265-.242a6.336 6.336 0 0 0-5.589 1.723 4.787 4.787 0 0 0-1.3 3.681c.043.383.465 1.937.465 1.937a4.172 4.172 0 0 0-2.034 3.87 5.945 5.945 0 0 0 1.613 3.887l1.94 1.14s-2.208.689-2.6.858a8.6 8.6 0 0 0-3.388 2.085 8.846 8.846 0 0 0-1.312 2.707c-1.268 4.439 3.54 4.881 4.281 8.583.236 1.177-.215 1.662-1.326 1.884-.462.093-1.929-.784-1.675-.023.389 1.168 2.054 1.47 3.013 1.47.108 0 .936-.087.936-.087a1.07 1.07 0 0 0 .3.6 1.807 1.807 0 0 0 2.222.131s.705 1.54 1.75 1.279c.53-.132 1.541-2.648 1.742-3.1a15.852 15.852 0 0 1 4.076-4.908 20.873 20.873 0 0 1 3.364-2.627c.734-.442 3-1.786 3-1.786a15.247 15.247 0 0 1 1.855-2.787 11.514 11.514 0 0 1 3.4-2.17l.913-3.295.153-2.19a11.448 11.448 0 0 0 1.579-2.428c.947-2.523-1.294-4.677.594-7.195a2.281 2.281 0 0 1 2.652-.512 3.825 3.825 0 0 1 1.387 1.387 10.729 10.729 0 0 0 3.064-.6 6.5 6.5 0 0 0 2.191-1.535 11.646 11.646 0 0 0 3.092-2.323c.757-.85 2.979-5.379 4.143-4.6 2.7 1.8 3.041.355 4.343 1.458a5.341 5.341 0 0 1 1.239 2.187 12.343 12.343 0 0 1 .415 4.368c-.101.836-.369 2.692-.369 2.692z" transform="translate(-397.337 -1005.527)" style="fill:#dbaaa6;fill-rule:evenodd"/>
    <path data-name="パス 1579" d="M682.3 1006.955s.807.114 1.072-.395a11.378 11.378 0 0 0 .013-2.042 5.744 5.744 0 0 1 .565-2.609c.82-1.551 2.224-1.619 3.576-2.746 1.239-1.033 1.943-2.237 3.525-2.945 2.611-1.17 6.776-1.087 9.195.5a4.19 4.19 0 0 1 1.31 1.212 3.409 3.409 0 0 1 .449 1.238s.58-1.133.63-1.283a5.594 5.594 0 0 0-.745-5.457 8.168 8.168 0 0 0-1.31-1 4.8 4.8 0 0 0-1.853-2.3c-1.21-.606-2.647-.636-3.914-1.059a2.646 2.646 0 0 1-1.007-.571c-.318-.3-.435-.564-.818-.682a.757.757 0 0 0-.864.209 4.472 4.472 0 0 0-3.05-.237 5.784 5.784 0 0 0-1.8 1.352s-.149-.334-.664-.223a1.935 1.935 0 0 0-.933.668s-4.646 1.527-6.087 2.967c-2.988 2.989-2.575 8.09-1.511 11.811.263.921.994 3.649.994 3.649s1.223-.867 1.579-.841a4.561 4.561 0 0 1 1.648.784z" transform="translate(-594.588 -986.62)" style="fill:#eac6b0;fill-rule:evenodd"/>
    <path data-name="パス 1580" d="M572.848 1125.785c-.334.144.146 1.032.249 1.292a2.888 2.888 0 0 0 3.21 2.117 3.224 3.224 0 0 0 2.268-1.486c.069-.14.346-.7.181-.863-.214-.212-1.253-.193-1.554-.222a16.916 16.916 0 0 1-2.75-.53c-.452-.121-1.163-.5-1.604-.308z" transform="translate(-517.405 -1089.312)" style="fill:#dbaaa6;fill-rule:evenodd"/>
    <path data-name="パス 1581" d="M687.737 1150.491s-.217 4.541-.354 6.389c-.134 1.817-.054 3.692-.035 5.514.03 2.745.406 4.67.663 7.4a44.928 44.928 0 0 1 .279 4.623 15.714 15.714 0 0 1-.31 2.947s.1 4.836-.041 7.1c-.016.252-.283 2.318-.041 2.516 1.293 1.066 7.24 7.341 7.24 7.341l8.535.04s-.317-5.206-.257-7.261.148-4.345.276-6.1c.485-6.69.691-12.645 1.089-19.352.172-2.867.29-5.387.283-8.192 0-.592-.212-3.841-.212-3.841s-.449.969-.623 1.229a3.913 3.913 0 0 1-1.377 1.306 11.65 11.65 0 0 1-5.972 1.53 23.312 23.312 0 0 1-6.154-1.21 11.444 11.444 0 0 1-1.947-.99c-.127-.071-1.042-.989-1.042-.989z" transform="translate(-601.984 -1106.938)" style="fill:#fff;fill-rule:evenodd"/>
    <path data-name="パス 1582" d="M581.385 1134.914s-1.15-5.051-1.624-7.056c-.9-3.811-1.713-7.24-2.814-11a33.649 33.649 0 0 0-1.907-4.5 8.806 8.806 0 0 1-.323-2.25 10.908 10.908 0 0 0 2.18-.8 10.781 10.781 0 0 0 3.283-3.665c1.176-2.076 1.572-4.562 2.854-6.542.483-.744.164-5.225 1.145-5.238.133 0 .615-.059.778.683a19.4 19.4 0 0 1 .2 2.566s.445.224.526 1.161a12.571 12.571 0 0 1-.235 2.268 18.233 18.233 0 0 1-.047 3.737c-.561 2.234-2.118 3.349-1.93 5.77a33.739 33.739 0 0 0 1.585 6.457c.872 3.171 2.1 6.833 2.809 9.06.812 2.562 2.606 8.524 2.606 8.524s-1.212 1.845-1.93 2.019c-1.592.385-3.776.7-5.333.025a18.09 18.09 0 0 1-1.823-1.219z" transform="translate(-518.87 -1065.781)" style="fill:#fdeee8;fill-rule:evenodd"/>
    <path data-name="パス 1583" d="M748.767 1125.758a2.383 2.383 0 0 0 .092 1.288c.209.536.861.892.92 1.15a28.4 28.4 0 0 1 .616 7.59c-.482 8.691-.682 17.427-1.261 26.111a465.61 465.61 0 0 1-.466 6.379c-.03.367-.088 2.847-.088 2.847s1.467.231 1.853.231c1.057 0 3.5.331 3.818.717s-.133 1.621-.133 1.621l-1.475 3.254h6.4s-.007-1.846.958-2.425c.473-.284 1.126-1.574 1.751-2.032a1.9 1.9 0 0 1 1.6-.37s.348-2.656.364-2.936c.107-1.808.5-6.639.5-6.639s1.094 2.5 1.247 2.859a36.135 36.135 0 0 1 1.477 4.624c.228.809 1.127 3.6 1.127 3.6l2.815 1.947 5.979-21.995-1.067-3.161c-.299-.888-.8-2.441-1.17-3.344-1.688-4.155-2.647-6.9-5.007-10.739a15.648 15.648 0 0 0-3.993-3.924 18 18 0 0 0-5.066-1.887c-3.067-.612-5.94-.431-8.645-2.078a15.521 15.521 0 0 1-2.071-2.27 1.649 1.649 0 0 0-1.075-.418z" transform="translate(-647.216 -1089.331)" style="fill:#e0e8ef;fill-rule:evenodd"/>
    <path data-name="パス 1584" d="M655.585 1235.816a51.262 51.262 0 0 0 4.463-2.7c1.34-.993 3.033-1.9 4.355-2.907 2.17-1.661 4.011-4.314 6.414-5.616 1.687-.914 2.538-.518 4.361-.549a50.013 50.013 0 0 0 6.339-.427 14.886 14.886 0 0 1 1.664-.091 9.017 9.017 0 0 1 1.526-.3c.758-.007 2.029-.185 2.029-.185a4.227 4.227 0 0 1 .787-.438c1.011-.288 3.082-.478 4.382-.78.39-.089 2.6-.952 2.882-.485.2.333-.9 1.31-1.1 1.483-.816.708-1.945.825-2.838 1.372a11.778 11.778 0 0 1-1.348.512l-1.079.481s.972 1.962 1.071 2.178c.589 1.286.144 1.875-.3 1.678s-1.285-.679-1.285-.679.292 1.564-.166 1.754-1.481-.819-1.67-1c-.833-.774-2.408-2.252-2.408-2.252a1.149 1.149 0 0 1-.45.345c-.29.06-.885.294-.6.489a43.876 43.876 0 0 1 2.4 1.815c.537.455.781.728.715 1.325-.032.286-1.287.13-1.445.092-1.221-.294-4.919-2.026-4.8-1.825.165.27-.566.251.072 1.013 1.174 1.4 3.741 1.468 5.154 2.708.248.219 1.249 1.624.632 1.927s-2.462-.447-3.09-.6a38.137 38.137 0 0 0-3.907-.943c-1.629-.215-3.535-.071-4.632-.279a4.012 4.012 0 0 1-1.375-.677s-3.264 3.534-4.52 4.841a80.808 80.808 0 0 1-7.944 7.1l-3.657 2.894s-.78-2.27-.85-2.674a18.967 18.967 0 0 1-.07-7.2c.064-.327.288-1.4.288-1.4z" transform="translate(-578.115 -1159.782)" style="fill:#fdeee8;fill-rule:evenodd"/>
    <path data-name="パス 1585" d="M667.823 1293.835s3.893 1.593 4.49 2.367.322 1.128.753 1.548a3.984 3.984 0 0 0 2.1.863 5.742 5.742 0 0 0 2.676.331 11.413 11.413 0 0 0 2.3-.841c1.311-.638 1.455.066 2.588-.862.883-.725 0-1.122 0-1.122a6.527 6.527 0 0 0 .5-.775c.163-.454-.078-.466-.232-.754a3.328 3.328 0 0 0 .528-.8c.06-.6-.68-1.221-.68-1.221s.606-.444.506-.823a2.755 2.755 0 0 0-1.461-1.52c-.061-.029 1.682.595 1.682.595l1.531-.861s-2.4-2.373-2.571-2.718c-.437-.9-2.737-.416-3.285-.54a32.537 32.537 0 0 0-3.394.028l-1.979 1.625s-1.4 1.468-1.981 1.936c-1.681 1.35-4.071 3.544-4.071 3.544z" transform="translate(-587.601 -1208.111)" style="fill:#fdeee8;fill-rule:evenodd"/>
    <path data-name="パス 1586" d="M362.841 1213.325c-.51-.53 1.045-2.129 1.593-2.858 1.094-1.459 2.445-3.717 3.5-5.069.659-.843 1.393-1.088 1.505-2.27a14.394 14.394 0 0 1 .506-3.788c.743-1.619 2.021-2.675 2.967-4.315a83.085 83.085 0 0 0 4.861-9.7c2.406-5.773 3.515-13.007 4.776-19.126.94-4.571 1.495-8.145 4.143-12.116a32.309 32.309 0 0 1 3.91-4.889 33.387 33.387 0 0 1 6.272-4.39 6.592 6.592 0 0 1 .952-1.785 20.648 20.648 0 0 1 2.83-2.838 1.957 1.957 0 0 1 1.483-.263l-.843 2.436s1.781 3.011 2.132 3.591c1.1 1.817 2.989 4.417 4.715 7.708 1.295 2.468 2.473 5.628 3.311 7.475a16.536 16.536 0 0 1 1 3.548l2.96 4.632a4.133 4.133 0 0 0 .564-.651c.634-1.268.352-2.749.174-4.121-.31-2.381-.613-6.924-1.147-10.233a32.024 32.024 0 0 0-1.819-6.692l1.138-2.8 1.4 2.234a12.622 12.622 0 0 1 1.233.808 10.963 10.963 0 0 0 3.054 1.589s.67 2.235 1.158 3.961 1.7 6.377 2.334 9.14c.411 1.783 1 4.076 1 4.076l.5 2.342a10.1 10.1 0 0 0 3.078 1.434 6.416 6.416 0 0 0 3.754-.285 14.809 14.809 0 0 0 2.255-1.735l-.868-2.775a4.871 4.871 0 0 1 .868.282c.835.627 1.753 3.194 1.994 4.12a14.13 14.13 0 0 1 .718 3.482 2.163 2.163 0 0 1-.48 1.245l.563 1.3s2.587-.791 2.884-.2c.184.367-.064.566-.156 1.155a14.786 14.786 0 0 0-.161 2.9 50.6 50.6 0 0 0 .486 5.28c.263.729.687 1.76.687 1.76l1.193-.87a2.932 2.932 0 0 1 .031 1.727 2.709 2.709 0 0 1-1.144 1.389c-.517.3-3.326 1.569-5.878 2.574a.728.728 0 0 1-1.021-.572s-7.66 4.885-11.132 4.017c-2.22-.554-4.254-2.731-6.087-4.013-.024-.017-2.668-2.183-2.668-2.183s-1.35 2.86-1.473 3.106c-.979 1.958-2.6 5.688-2.6 5.688L389 1207.233l-.016 6.516a11.227 11.227 0 0 1-4.135.76c-.95.014-3.606-1.05-6.557-1.154-2.771-.1-5.976.84-8.719.9a17.7 17.7 0 0 1-6.732-.93z" transform="translate(-362.39 -1099.749)" style="fill:#fff;fill-rule:evenodd"/>
    <path data-name="パス 1587" d="M629.889 1156.775s.259-2.505.293-3.223a30.87 30.87 0 0 0-.307-3.944 84.888 84.888 0 0 1-.455-18.43c.078-1.093.4-6.243.4-6.243a4.952 4.952 0 0 0 1.1-1.481 7.851 7.851 0 0 0 .121-1.913 5.023 5.023 0 0 0-1.643 1.025 5.958 5.958 0 0 1-3.715 2.326c-4.721.473-9.791.155-13.719 3.158a9.678 9.678 0 0 0-2.439 2.7 10.574 10.574 0 0 0-1.024 1.637c1.83 6.4 6.144 19.7 6.144 19.7a1.117 1.117 0 0 1 1.036.417 8.932 8.932 0 0 1 1.276 2.4 18.016 18.016 0 0 1 1.354 4.858c.042.506-.64 1.37-.64 1.37l.508 1.355s1.367-.272 1.965-.343a2.846 2.846 0 0 1 1.128.111s4.789-2.818 6.474-4.081c.447-.338 2.143-1.399 2.143-1.399z" transform="translate(-543.803 -1086.219)" style="fill:#e0e8ef;fill-rule:evenodd"/>
    <path data-name="パス 1588" d="M715.464 1059.958c-.2.088-.148.546-.155.754a4.158 4.158 0 0 0 .324 2.1c.736 1.405 3.131 1.9 4.488 1.327a3.033 3.033 0 0 0 1.46-1.051c.814-1.215 1.087-3.11-.176-3.741-1.247-.624-4.168-.355-5.422.064-.309.106-.254.43-.519.547z" transform="translate(-622.648 -1040.037)" style="fill-rule:evenodd;fill:#fcece5"/>
    <path data-name="パス 1589" d="M755.08 1059.82a3.945 3.945 0 0 0 .8 3.971c1.328 1.162 3.633.117 4.053-1.214a17.4 17.4 0 0 0 .4-1.789c.19-1.707-1.477-1.585-3.031-1.524-.548.02-2.002-.035-2.222.556z" transform="translate(-651.856 -1040.224)" style="fill-rule:evenodd;fill:#fcece5"/>
    <path data-name="パス 1590" d="M740.47 1308.189a5.808 5.808 0 0 1-3.493.911c-1.465.034-3.513-.037-4.728-.993-1.073-.844-1.6-2.668-1.969-3.927a17.726 17.726 0 0 0-.734-1.941c-.05-.116-.406-.58-.313-.71.126-.173.788.081.972.107a29.715 29.715 0 0 0 3.472.329c1.805.051 3.608 0 5.413.063.208.007 2.415-.231 2.415-.231a4.124 4.124 0 0 0 1.211-.454c.288-.194.234-.649.425-.464 1.067 1.036-1.819 6.559-2.671 7.31z" transform="translate(-632.923 -1218.573)" style="fill:#fff;fill-rule:evenodd"/>
    <path data-name="パス 1591" d="M739.246 1299.18c-1.454.083-2.913.131-4.369.072-1.028-.042-2.047-.055-3.072-.159-.275-.028-.55-.043-.823-.079a8.593 8.593 0 0 1-2.1-.52c-.1-.039-.645-.249-.519-.463s.568-.335.784-.423a3.009 3.009 0 0 1 .515-.146c.328-.072.656-.1.989-.14a66.964 66.964 0 0 1 7.332-.159c.8-.016 3.244.255 3.244.255a8.722 8.722 0 0 1 1.268.8 1.713 1.713 0 0 1-1.135.65z" transform="translate(-632.281 -1215.846)" style="fill:#f2d0b4;fill-rule:evenodd"/>
    <path data-name="パス 1592" d="m748.12 1220.9-7.823 28.077-31.185 4.434-.1 1.495 27.811 8.639 39.786-8.207 10.432-36.282-.415-.571-4.32-.56z" transform="translate(-618.006 -1157.368)" style="fill:#e0e8ef;fill-rule:evenodd"/>
    <path data-name="パス 1593" d="M794.075 1303.246c.131.017-.573-.393-.781-.454a1.822 1.822 0 0 0-1.726.52c-1.332 1.1-2.508 2.316-2.307 4.136a8.214 8.214 0 0 0 .358 1.1 1.554 1.554 0 0 0 1.635 1.19c.191-.039.341-.2.551-.164.194.032.318.294.52.327a1.546 1.546 0 0 0 .789-.029c.058-.023.3-.244.387-.179.768.615 1.167.34 2.008.06.084-.028.45.348.579.387a1.641 1.641 0 0 0 1.071-.148 8.592 8.592 0 0 0 2.9-1.458 2.663 2.663 0 0 0 .491-1.027c.114-.33.446-1.488.446-1.488a8.619 8.619 0 0 1-1-.253c-.279-.111-.614-.635-.878-.833-.371-.279-.9-.284-1.235-.535-.433-.326-.685-.953-1.161-1.309a2.719 2.719 0 0 0-1.918-.371c-.204.071-.942.503-.729.528z" transform="translate(-677.23 -1219.921)" style="fill:#fdeee8;fill-rule:evenodd"/>
    <g data-name="グループ 1341">
        <g data-name="グループ 1217">
            <g data-name="グループ 1216">
                <path data-name="パス 1594" d="M713.716 1297.663a3.326 3.326 0 0 1-1.926-.8 3.583 3.583 0 0 0-1.209-.642 2.509 2.509 0 0 0-1.1.11l-.249.059a.333.333 0 0 1-.145-.649l.238-.056a3.107 3.107 0 0 1 1.4-.113 4.141 4.141 0 0 1 1.446.746 2.787 2.787 0 0 0 1.545.68.332.332 0 1 1 0 .665z" transform="translate(-617.874 -1214.656)" style="fill:#535e76"/>
            </g>
        </g>
        <g data-name="グループ 1218">
            <path data-name="パス 1595" d="M524.927 1086.748a1.8 1.8 0 0 1-.257-.02c-1.229-.19-2.047-1.595-2.269-2.021-.711-1.365-1.183-3.531-.175-5.142a2.513 2.513 0 0 1 2.5-1.247 2.838 2.838 0 0 1 2.325 1.884.332.332 0 1 1-.631.208 2.161 2.161 0 0 0-1.774-1.432 1.873 1.873 0 0 0-1.855.939c-.858 1.373-.428 3.273.2 4.482.381.734 1.049 1.559 1.78 1.672a1.228 1.228 0 0 0 1.079-.435.333.333 0 0 1 .471.47 1.948 1.948 0 0 1-1.394.642z" transform="translate(-479.694 -1054.297)" style="fill:#535e76"/>
        </g>
        <g data-name="グループ 1219">
            <path data-name="パス 1596" d="M531.513 1092.228a.332.332 0 0 1-.325-.267 5.191 5.191 0 0 0-.32-.941c-.083-.2-.165-.4-.234-.609a.333.333 0 0 1 .631-.211c.065.194.141.38.219.568a5.777 5.777 0 0 1 .356 1.063.333.333 0 0 1-.26.391.427.427 0 0 1-.067.006z" transform="translate(-486.316 -1062.915)" style="fill:#535e76"/>
        </g>
        <g data-name="グループ 1220">
            <path data-name="パス 1597" d="M604.512 1064.829a.347.347 0 0 1-.117-.022.332.332 0 0 1-.194-.428 14.609 14.609 0 0 0 .307-7.257 4.951 4.951 0 0 0-1.646-2.768.332.332 0 0 1 .3-.594c1 .5 1.835 2.371 2 3.236a14.882 14.882 0 0 1-.339 7.617.334.334 0 0 1-.311.216z" transform="translate(-539.512 -1036.157)" style="fill:#535e76"/>
        </g>
        <g data-name="グループ 1221">
            <path data-name="パス 1598" d="M545.572 1122.564a7.957 7.957 0 0 1-1.066-.074c-4.071-.543-7.159-4.427-8.222-6.4a.332.332 0 1 1 .585-.315c1.008 1.874 3.92 5.552 7.724 6.061 2.878.383 5.209-.932 7.119-4.031a19.218 19.218 0 0 0 2.645-7.486.332.332 0 1 1 .659.084 19.887 19.887 0 0 1-2.738 7.75c-1.825 2.958-4.027 4.411-6.706 4.411z" transform="translate(-490.47 -1077.717)" style="fill:#535e76"/>
        </g>
        <g data-name="グループ 1222">
            <path data-name="パス 1599" d="M554.452 1158.868a.331.331 0 0 1-.332-.331 7.75 7.75 0 0 1 .882-2.976 12.472 12.472 0 0 0 .608-1.543.333.333 0 0 1 .64.182 12.76 12.76 0 0 1-.64 1.631 7.3 7.3 0 0 0-.825 2.706.332.332 0 0 1-.333.331z" transform="translate(-503.666 -1110.015)" style="fill:#535e76"/>
        </g>
        <g data-name="グループ 1223">
            <path data-name="パス 1600" d="M509.2 1126.363a.324.324 0 0 1-.137-.031.332.332 0 0 1-.166-.44c.021-.046 2.049-4.55 2.049-7.816a.332.332 0 0 1 .665 0c0 3.412-2.023 7.9-2.108 8.092a.333.333 0 0 1-.303.195z" transform="translate(-470.258 -1083.416)" style="fill:#535e76"/>
        </g>
        <g data-name="グループ 1224">
            <path data-name="パス 1601" d="M510.415 1111.574a2.58 2.58 0 0 1-.447-.04.332.332 0 0 1 .115-.654c1.245.222 2.146-.871 2.541-1.872l.032-.079a2.47 2.47 0 0 0 .228-.749.325.325 0 0 1 .213-.412.338.338 0 0 1 .422.219 1.944 1.944 0 0 1-.245 1.189l-.031.076a3.306 3.306 0 0 1-2.828 2.322z" transform="translate(-470.871 -1076.039)" style="fill:#535e76"/>
        </g>
        <g data-name="グループ 1225">
            <path data-name="パス 1602" d="M542.053 1057.542a7.231 7.231 0 0 1-4.495-1.448.332.332 0 0 1 .48-.46c.7.73 4.177 1.98 6.432.654a13.6 13.6 0 0 0 3.806-4.024c.986-1.392 1.767-2.492 2.728-2.566a1.648 1.648 0 0 1 1.325.61.332.332 0 0 1-.476.463 1.058 1.058 0 0 0-.8-.411c-.652.05-1.386 1.087-2.238 2.287a14.08 14.08 0 0 1-4.012 4.214 5.4 5.4 0 0 1-2.75.681z" transform="translate(-491.372 -1033.181)" style="fill:#535e76"/>
        </g>
        <g data-name="グループ 1226">
            <path data-name="パス 1603" d="M544.38 1081.569a2.188 2.188 0 0 1-1.59-.655.333.333 0 0 1 .464-.477 1.952 1.952 0 0 0 2.073.313l.163-.041a.333.333 0 0 1 .156.647l-.157.039a4.506 4.506 0 0 1-1.109.174z" transform="translate(-495.228 -1055.806)" style="fill:#535e76"/>
        </g>
        <g data-name="グループ 1227">
            <path data-name="パス 1604" d="M595.577 1045.777a.328.328 0 0 1-.13-.027.333.333 0 0 1-.175-.437c.271-.633-.25-1.793-.667-2.419a.333.333 0 1 1 .554-.369c.126.19 1.222 1.89.725 3.049a.333.333 0 0 1-.307.203z" transform="translate(-533.51 -1027.782)" style="fill:#535e76"/>
        </g>
        <g data-name="グループ 1228">
            <path data-name="パス 1605" d="M769.438 1034.22a.333.333 0 0 1-.333-.332c0-.336.011-.692.021-1.06a9.283 9.283 0 0 0-.491-4.209.333.333 0 0 1 .595-.3 9.752 9.752 0 0 1 .562 4.529c-.012.36-.021.71-.021 1.039a.333.333 0 0 1-.333.333z" transform="translate(-661.994 -1017.267)" style="fill:#535e76"/>
        </g>
        <g data-name="グループ 1229">
            <path data-name="パス 1606" d="M684.351 1068.122a2.387 2.387 0 0 1-1.278-.382c-1.63-1.018-2.441-3.771-2.052-5.458a2.261 2.261 0 0 1 1.6-1.767 2.739 2.739 0 0 1 2.588.641.332.332 0 0 1-.47.47 2.073 2.073 0 0 0-1.935-.473 1.6 1.6 0 0 0-1.134 1.277 5.046 5.046 0 0 0 1.757 4.746 1.892 1.892 0 0 0 2.349-.3.332.332 0 1 1 .417.516 2.934 2.934 0 0 1-1.842.73z" transform="translate(-597.272 -1041.098)" style="fill:#535e76"/>
        </g>
        <g data-name="グループ 1230">
            <path data-name="パス 1607" d="M690.2 1073.127a.333.333 0 0 1-.3-.183 4.937 4.937 0 0 0-1.063-1.361.332.332 0 1 1 .47-.471 5.551 5.551 0 0 1 1.187 1.534.333.333 0 0 1-.147.446.339.339 0 0 1-.147.035z" transform="translate(-603.045 -1048.92)" style="fill:#535e76"/>
        </g>
        <g data-name="グループ 1231">
            <path data-name="パス 1608" d="M713.5 1079.765c-3.375 0-7.55-1.486-8.639-5.732a.332.332 0 0 1 .643-.165c1.026 3.992 5.1 5.327 8.279 5.227a6.467 6.467 0 0 0 5.351-2.8c2.305-2.9 2.6-7.565 2.6-11.31a.332.332 0 0 1 .665 0c0 3.853-.312 8.667-2.745 11.723a7.153 7.153 0 0 1-5.854 3.055l-.3.002z" transform="translate(-614.934 -1044.222)" style="fill:#535e76"/>
        </g>
        <g data-name="グループ 1232">
            <path data-name="パス 1609" d="M596.782 1103.545a.332.332 0 1 1 0-.664 1.036 1.036 0 0 0 .751-.385.6.6 0 0 0 .144-.51c-.029-.131-.128-.216-.3-.356a2.135 2.135 0 0 1-.351-.336 2.629 2.629 0 0 1-.209-2.667.332.332 0 1 1 .594.3 1.959 1.959 0 0 0 .139 1.96 1.515 1.515 0 0 0 .246.228 1.3 1.3 0 0 1 .53.728 1.259 1.259 0 0 1-.274 1.07 1.7 1.7 0 0 1-1.27.632z" transform="translate(-534.913 -1069.168)" style="fill:#535e76"/>
        </g>
        <g data-name="グループ 1233">
            <path data-name="パス 1610" d="M576.233 1081.772a.331.331 0 0 1-.108-.018 5.848 5.848 0 0 0-3.473-.049.333.333 0 0 1-.155-.647 6.48 6.48 0 0 1 3.844.066.333.333 0 0 1-.108.647z" transform="translate(-517.043 -1056.15)" style="fill:#535e76"/>
        </g>
        <g data-name="グループ 1234">
            <path data-name="パス 1611" d="M604.955 1085.7a.324.324 0 0 1-.151-.037 3.323 3.323 0 0 0-1.731-.194.332.332 0 1 1-.125-.653 3.933 3.933 0 0 1 2.158.255.333.333 0 0 1-.152.628z" transform="translate(-539.512 -1059.073)" style="fill:#535e76"/>
        </g>
        <g data-name="グループ 1235">
            <path data-name="パス 1612" d="M575.259 1128.66a3.317 3.317 0 0 1-.447-.029 3.2 3.2 0 0 1-2.433-1.645 5.825 5.825 0 0 1-.657-2.308.424.424 0 0 1 .159-.266c.216-.15.5-.079 1.434.156.639.16 1.516.38 2.544.557a15.778 15.778 0 0 0 1.652.18 1.586 1.586 0 0 1 .709.119.5.5 0 0 1 .22.384 2.833 2.833 0 0 1-.932 1.92 3.088 3.088 0 0 1-2.249.932zm-2.858-3.628a6.594 6.594 0 0 0 .563 1.637 2.537 2.537 0 0 0 1.935 1.3 2.477 2.477 0 0 0 2.126-.7 2.7 2.7 0 0 0 .747-1.281l-.307-.023a16.073 16.073 0 0 1-1.72-.189 32.038 32.038 0 0 1-2.593-.567c-.274-.065-.552-.135-.752-.177z" transform="translate(-516.654 -1088.279)" style="fill:#535e76"/>
        </g>
        <path data-name="パス 1613" d="M577.891 1097.363a.585.585 0 1 1 .583.536.56.56 0 0 1-.583-.536z" transform="translate(-521.214 -1067.975)" style="fill:#535e76;fill-rule:evenodd"/>
        <path data-name="パス 1614" d="M603.72 1101.464a.584.584 0 1 1 .582.535.559.559 0 0 1-.582-.535z" transform="translate(-540.281 -1071.002)" style="fill:#535e76;fill-rule:evenodd"/>
        <g data-name="グループ 1236">
            <path data-name="パス 1615" d="M593.252 1121.952a.333.333 0 0 1-.319-.241 7.224 7.224 0 0 1 .178-5.491 12.751 12.751 0 0 1 .584-1.181 7.292 7.292 0 0 0 .843-2 10.572 10.572 0 0 0 .021-2.064 14.989 14.989 0 0 1-.025-1.532c.018-.312.071-.665.122-1 .1-.66.234-1.563-.014-1.788a.208.208 0 0 0-.189-.069c-.24.038-.615.427-.91.944a4.452 4.452 0 0 0-.6 2.329 9.841 9.841 0 0 1-.192 1.673 3.964 3.964 0 0 1-1.307 2.271c-.19.192-.4.4-.63.67-1.345 1.546-2.659 3.2-2.659 4.941a.332.332 0 0 1-.665 0c0-1.969 1.395-3.737 2.822-5.378.242-.277.46-.5.658-.7a3.3 3.3 0 0 0 1.13-1.944 9.173 9.173 0 0 0 .178-1.566 5.121 5.121 0 0 1 .682-2.626c.2-.347.73-1.167 1.383-1.27a.871.871 0 0 1 .74.233c.511.465.372 1.394.224 2.378-.051.341-.1.663-.116.946a14.467 14.467 0 0 0 .026 1.461 11.04 11.04 0 0 1-.03 2.205 7.755 7.755 0 0 1-.912 2.2 12.438 12.438 0 0 0-.555 1.118 6.587 6.587 0 0 0-.154 5.057.331.331 0 0 1-.228.41.313.313 0 0 1-.086.014z" transform="translate(-528.303 -1074.683)" style="fill:#535e76"/>
        </g>
        <g data-name="グループ 1237">
            <path data-name="パス 1616" d="M608.869 1094.185a.3.3 0 0 1-.135-.031.32.32 0 0 1-.162-.428l.027-.055a.332.332 0 0 1 .6.285l-.015.032a.357.357 0 0 1-.315.197z" transform="translate(-543.839 -1065.505)" style="fill:#535e76"/>
        </g>
        <g data-name="グループ 1238">
            <path data-name="パス 1617" d="M610.076 1096.617a.333.333 0 0 1-.331-.324l-.055-1.884c-.022-.775-.274-1.1-.405-1.1a3.54 3.54 0 0 0-.172.087.357.357 0 0 1-.023.058.331.331 0 0 1-.446.147.366.366 0 0 1-.2-.417c.079-.336.693-.539.839-.539.47 0 1.033.456 1.07 1.743l.054 1.884a.332.332 0 0 1-.322.342z" transform="translate(-543.76 -1064.889)" style="fill:#535e76"/>
        </g>
        <g data-name="グループ 1239">
            <path data-name="パス 1618" d="M746.949 1067.2a.333.333 0 0 1-.156-.626c.377-.2.706-.575.543-.93a1.046 1.046 0 0 0-.348-.378 1.39 1.39 0 0 1-.608-.906c0-.014-.069-1.62.193-1.815l.2.266-.023.332.023-.332.328.051a8.311 8.311 0 0 0-.065 1.383.755.755 0 0 0 .365.5 1.661 1.661 0 0 1 .539.621 1.41 1.41 0 0 1-.835 1.8.332.332 0 0 1-.156.034z" transform="translate(-645.585 -1042.668)" style="fill:#535e76"/>
        </g>
        <g data-name="グループ 1240">
            <path data-name="パス 1619" d="M731.668 1095.467a8.424 8.424 0 0 1-1.476-.125 5.085 5.085 0 0 1-1.923-.774.332.332 0 0 1 .4-.532 4.487 4.487 0 0 0 1.644.652c1.17.215 3.219.183 3.911-.562a.332.332 0 1 1 .487.451 4.357 4.357 0 0 1-3.043.89z" transform="translate(-632.125 -1065.865)" style="fill:#535e76"/>
        </g>
        <g data-name="グループ 1241">
            <path data-name="パス 1620" d="M721.462 1051.783a.332.332 0 0 1-.172-.617 3.408 3.408 0 0 1 3.26-.194.332.332 0 0 1-.344.568 2.793 2.793 0 0 0-2.573.195.33.33 0 0 1-.171.048z" transform="translate(-626.951 -1033.881)" style="fill:#535e76"/>
        </g>
        <g data-name="グループ 1242">
            <path data-name="パス 1621" d="M758.354 1052.11a.333.333 0 0 1-.194-.6 2.467 2.467 0 0 1 2.387-.071.333.333 0 0 1-.311.588 1.8 1.8 0 0 0-1.688.022.332.332 0 0 1-.194.061z" transform="translate(-654.184 -1034.266)" style="fill:#535e76"/>
        </g>
        <g data-name="グループ 1243">
            <path data-name="パス 1622" d="M699.33 1048.975a.334.334 0 0 1-.316-.227 7.878 7.878 0 0 1 .6-5.04.332.332 0 1 1 .557.363 7.416 7.416 0 0 0-.529 4.466.331.331 0 0 1-.209.42.318.318 0 0 1-.103.018z" transform="translate(-610.494 -1028.651)" style="fill:#535e76"/>
        </g>
        <g data-name="グループ 1244">
            <path data-name="パス 1623" d="M678.181 1022.317a.334.334 0 0 1-.313-.219c-1.333-3.669-2.471-10.563.159-13.441a.332.332 0 1 1 .49.447c-2.167 2.374-1.63 8.35-.023 12.766a.334.334 0 0 1-.2.426.337.337 0 0 1-.113.021z" transform="translate(-593.962 -1002.808)" style="fill:#535e76"/>
        </g>
        <g data-name="グループ 1245">
            <path data-name="パス 1624" d="M687.774 997.122a.329.329 0 0 1-.183-.055.334.334 0 0 1-.092-.461 7.537 7.537 0 0 1 4.372-2.321.333.333 0 1 1 0 .665 7.189 7.189 0 0 0-3.819 2.023.331.331 0 0 1-.278.149z" transform="translate(-602.084 -992.279)" style="fill:#535e76"/>
        </g>
        <g data-name="グループ 1246">
            <path data-name="パス 1625" d="M743.924 997.455a.332.332 0 0 1 0-.665c.276 0 .842-.614 1-.958a4.43 4.43 0 0 0-.662-4.6 7.051 7.051 0 0 0-3.58-1.543l-.122-.019c-.8-.125-2.13-.334-2.546-1.167a.332.332 0 1 1 .594-.3c.263.526 1.429.709 2.055.807l.124.02a7.529 7.529 0 0 1 3.955 1.74 5.07 5.07 0 0 1 .786 5.336c-.183.401-.905 1.349-1.604 1.349z" transform="translate(-639.39 -987.657)" style="fill:#535e76"/>
        </g>
        <g data-name="グループ 1247">
            <path data-name="パス 1626" d="M733.772 989.462a.319.319 0 0 1-.124-.024 1.872 1.872 0 0 1-1.055-2.179.332.332 0 0 1 .645.162 1.231 1.231 0 0 0 .658 1.4.332.332 0 0 1-.123.64z" transform="translate(-635.372 -986.906)" style="fill:#535e76"/>
        </g>
        <g data-name="グループ 1248">
            <path data-name="パス 1627" d="M721.1 999.021a.334.334 0 0 1-.281-.51 2.141 2.141 0 0 0 .22-1.416c-.288-1.382-1.781-1.961-3.361-2.575-1.767-.686-3.594-1.4-3.594-3.36a.332.332 0 1 1 .665 0c0 1.509 1.469 2.08 3.17 2.741 1.675.651 3.408 1.323 3.772 3.058a2.8 2.8 0 0 1-.309 1.906.332.332 0 0 1-.282.156z" transform="translate(-621.751 -989.726)" style="fill:#535e76"/>
        </g>
        <g data-name="グループ 1249">
            <path data-name="パス 1628" d="M715.732 1000.076a.328.328 0 0 1-.105-.017.334.334 0 0 1-.211-.421c.356-1.066-1.312-1.9-1.832-2.128a28.137 28.137 0 0 0-.868-.359c-2.006-.81-4.753-1.919-4.286-4.717a.332.332 0 1 1 .655.11c-.378 2.271 1.884 3.185 3.88 3.99.313.127.613.248.887.368.833.368 2.714 1.392 2.2 2.947a.335.335 0 0 1-.32.227z" transform="translate(-617.539 -990.707)" style="fill:#535e76"/>
        </g>
        <g data-name="グループ 1250">
            <path data-name="パス 1629" d="M716.908 1016.445h-.042a4.454 4.454 0 0 1-3.336-2.255.332.332 0 1 1 .553-.369 3.806 3.806 0 0 0 2.867 1.965.332.332 0 0 1-.041.662z" transform="translate(-621.299 -1006.588)" style="fill:#535e76"/>
        </g>
        <g data-name="グループ 1251">
            <path data-name="パス 1630" d="M696.914 1031.2a2.95 2.95 0 0 1-2.007-.583.332.332 0 0 1 .47-.469 2.366 2.366 0 0 0 1.537.387 4.689 4.689 0 0 0 4.16-2.576.332.332 0 1 1 .594.3 5.356 5.356 0 0 1-4.754 2.941z" transform="translate(-607.522 -1016.998)" style="fill:#535e76"/>
        </g>
        <g data-name="グループ 1252">
            <path data-name="パス 1631" d="M767.208 1012.7a.326.326 0 0 1-.184-.056.331.331 0 0 1-.092-.46 5.392 5.392 0 0 0 .1-5.9 2.533 2.533 0 0 0-1.22-1.019.332.332 0 0 1 .184-.639 3.17 3.17 0 0 1 1.584 1.283 5.988 5.988 0 0 1-.1 6.648.328.328 0 0 1-.272.143z" transform="translate(-659.766 -999.9)" style="fill:#535e76"/>
        </g>
        <g data-name="グループ 1253">
            <path data-name="パス 1632" d="M750.34 1014.666a.332.332 0 0 1-.206-.593 2.7 2.7 0 0 0 .906-1.811.332.332 0 1 1 .662.055 3.381 3.381 0 0 1-1.155 2.278.334.334 0 0 1-.207.071z" transform="translate(-648.27 -1005.323)" style="fill:#535e76"/>
        </g>
        <path data-name="パス 1633" d="M726.408 1065.191a.585.585 0 1 1 .583.536.56.56 0 0 1-.583-.536z" transform="translate(-630.848 -1044.226)" style="fill:#535e76;fill-rule:evenodd"/>
        <path data-name="パス 1634" d="M758.727 1064.91a.585.585 0 1 1 .584.535.561.561 0 0 1-.584-.535z" transform="translate(-654.706 -1044.019)" style="fill:#535e76;fill-rule:evenodd"/>
        <g data-name="グループ 1254">
            <path data-name="パス 1635" d="M594.514 1042.03a.332.332 0 0 1-.215-.586c3.282-2.772 1.34-8.993-1.324-12.418-.85-1.093-3.067-3.633-5.3-3.633a.333.333 0 1 1 0-.665c2.525 0 4.913 2.721 5.823 3.89 2.721 3.5 4.992 10.155 1.227 13.335a.329.329 0 0 1-.211.077z" transform="translate(-528.192 -1014.751)" style="fill:#535e76"/>
        </g>
        <g data-name="グループ 1255">
            <path data-name="パス 1636" d="M580.1 1016.341a.331.331 0 0 1-.321-.25l-.038-.148c-.2-.808-.436-1.725-1.195-1.982a.332.332 0 1 1 .214-.63c1.1.373 1.4 1.573 1.625 2.448l.037.147a.332.332 0 0 1-.239.4.34.34 0 0 1-.083.015z" transform="translate(-521.527 -1006.325)" style="fill:#535e76"/>
        </g>
        <g data-name="グループ 1256">
            <path data-name="パス 1637" d="M475.781 1023.419a2.372 2.372 0 0 1-1.222-.335 2.526 2.526 0 0 1-1.135-2.651.333.333 0 0 1 .657.106 1.873 1.873 0 0 0 .819 1.974 1.93 1.93 0 0 0 2.21-.244 14.371 14.371 0 0 0 2.837-3.3 24.2 24.2 0 0 1 1.686-2.225 17.184 17.184 0 0 1 9.653-5.539c2.276-.4 5.217-.707 7.782.393a7.762 7.762 0 0 1 2.463 1.892.332.332 0 0 1-.553.369 7.247 7.247 0 0 0-2.173-1.65c-2.4-1.032-5.22-.729-7.4-.35a16.5 16.5 0 0 0-9.269 5.326 23.407 23.407 0 0 0-1.638 2.165 14.847 14.847 0 0 1-2.979 3.449 2.861 2.861 0 0 1-1.738.62z" transform="translate(-444.067 -1004.497)" style="fill:#535e76"/>
        </g>
        <g data-name="グループ 1257">
            <path data-name="パス 1638" d="M470.534 1057.883a2.47 2.47 0 0 1-1.621-.56 2.565 2.565 0 0 1-.8-2.3.328.328 0 0 1 .364-.3.331.331 0 0 1 .3.364 1.928 1.928 0 0 0 .57 1.728 2.062 2.062 0 0 0 1.9.3.333.333 0 0 1 .175.642 3.389 3.389 0 0 1-.888.126z" transform="translate(-440.161 -1036.892)" style="fill:#535e76"/>
        </g>
        <g data-name="グループ 1258">
            <path data-name="パス 1639" d="M431.9 1077.425a.333.333 0 0 1-.154-.038c-2.2-1.152-2.473-4.1-1.468-6.182a6.372 6.372 0 0 1 4.756-3.291 8.074 8.074 0 0 1 2.975.344 5.638 5.638 0 0 0 3.262.185.333.333 0 1 1 .234.622 6.217 6.217 0 0 1-3.653-.161 7.4 7.4 0 0 0-2.724-.333 5.692 5.692 0 0 0-4.252 2.923c-.87 1.8-.666 4.336 1.179 5.3a.332.332 0 0 1-.155.627z" transform="translate(-411.832 -1046.602)" style="fill:#535e76"/>
        </g>
        <g data-name="グループ 1259">
            <path data-name="パス 1640" d="M427.892 1110.563a.334.334 0 0 1-.081-.01 5.238 5.238 0 0 1-3.545-3.179 5.136 5.136 0 0 1 .38-4.712.332.332 0 1 1 .561.356 4.479 4.479 0 0 0-.323 4.11 4.571 4.571 0 0 0 3.087 2.781.333.333 0 0 1-.08.655z" transform="translate(-407.514 -1072.167)" style="fill:#535e76"/>
        </g>
        <g data-name="グループ 1260">
            <path data-name="パス 1641" d="M412.08 1149.718a2.488 2.488 0 0 1-1.379-.426.332.332 0 1 1 .369-.553 1.652 1.652 0 0 0 1.854.058 1.37 1.37 0 0 0 .464-1.544 6.505 6.505 0 0 0-2.107-2.886c-1.431-1.372-3.053-2.926-2.245-5.777a6.888 6.888 0 0 1 5.743-5 .332.332 0 1 1 .055.661 6.114 6.114 0 0 0-5.158 4.516c-.7 2.467.643 3.754 2.064 5.115a7.1 7.1 0 0 1 2.292 3.2 2.027 2.027 0 0 1-.724 2.252 2.116 2.116 0 0 1-1.228.384z" transform="translate(-396.406 -1095.115)" style="fill:#535e76"/>
        </g>
        <g data-name="グループ 1261">
            <path data-name="パス 1642" d="M424.264 1194.4a3.294 3.294 0 0 1-1.362-.3.332.332 0 0 1 .274-.6 2.636 2.636 0 0 0 3.287-.959.333.333 0 1 1 .548.376 3.332 3.332 0 0 1-2.747 1.483z" transform="translate(-406.657 -1138.519)" style="fill:#535e76"/>
        </g>
        <g data-name="グループ 1262">
            <path data-name="パス 1643" d="M436.068 1193.871a1.889 1.889 0 0 1-.2-.01.333.333 0 0 1 .068-.662.984.984 0 0 0 .893-.343 2.665 2.665 0 0 0 .452-2.122.333.333 0 0 1 .65-.145 3.3 3.3 0 0 1-.605 2.708 1.641 1.641 0 0 1-1.258.574z" transform="translate(-416.155 -1136.999)" style="fill:#535e76"/>
        </g>
        <g data-name="グループ 1263">
            <path data-name="パス 1644" d="M717.414 1063.792a3.314 3.314 0 0 1-2.279-.979 3.2 3.2 0 0 1-1.006-2.3c0-.11-.008-.232-.015-.36-.036-.639-.093-1.606.777-1.932a11.809 11.809 0 0 1 4.236-.381 3.612 3.612 0 0 1 1.886.588 1.886 1.886 0 0 1 .653 1.506 4.11 4.11 0 0 1-1.031 2.888 3.278 3.278 0 0 1-1.957.927.332.332 0 0 1-.017-.664 2.672 2.672 0 0 0 1.536-.764 3.458 3.458 0 0 0 .8-2.362 1.312 1.312 0 0 0-.389-1 2.931 2.931 0 0 0-1.512-.455 11.329 11.329 0 0 0-3.976.338c-.383.144-.386.6-.347 1.272.007.141.016.276.016.4a2.543 2.543 0 0 0 .806 1.82 2.683 2.683 0 0 0 1.867.788.333.333 0 1 1 .017.665z" transform="translate(-621.76 -1039.177)" style="fill:#535e76"/>
        </g>
        <g data-name="グループ 1264">
            <path data-name="パス 1645" d="M756.651 1063.477a3.451 3.451 0 0 1-.428-.028.332.332 0 1 1 .085-.659 2.247 2.247 0 0 0 1.829-.527 2.637 2.637 0 0 0 .9-1.625 5.465 5.465 0 0 1 .059-.572c.089-.652.131-1.162-.179-1.291-1.07-.446-4.039-.346-4.366.043a4.086 4.086 0 0 0 .078 2.441c.218.773.551 1.284.912 1.405a.332.332 0 1 1-.21.63 2.588 2.588 0 0 1-1.342-1.855c-.3-1.075-.369-2.546.052-3.05.669-.8 4.1-.66 5.131-.229.807.336.677 1.294.583 1.994a4.743 4.743 0 0 0-.052.5 3.29 3.29 0 0 1-1.138 2.113 2.891 2.891 0 0 1-1.914.71z" transform="translate(-651.031 -1039.176)" style="fill:#535e76"/>
        </g>
        <g data-name="グループ 1265">
            <path data-name="パス 1646" d="M741.155 1066.073a.333.333 0 0 1-.15-.63 4.4 4.4 0 0 1 3.542-.011.333.333 0 0 1-.37.553 3.871 3.871 0 0 0-2.875.052.325.325 0 0 1-.147.036z" transform="translate(-641.489 -1044.525)" style="fill:#535e76"/>
        </g>
        <g data-name="グループ 1266">
            <path data-name="パス 1647" d="M702.593 1063.782a.316.316 0 0 1-.075-.009l-4.034-.941a.332.332 0 0 1 .151-.647l4.034.941a.333.333 0 0 1-.076.656z" transform="translate(-610.045 -1042.395)" style="fill:#535e76"/>
        </g>
        <g data-name="グループ 1267">
            <path data-name="パス 1648" d="M771.06 1068.034a.321.321 0 0 1-.075-.009l-.951-.22a.332.332 0 1 1 .151-.647l.95.221a.332.332 0 0 1-.074.656z" transform="translate(-662.862 -1046.066)" style="fill:#535e76"/>
        </g>
        <g data-name="グループ 1268">
            <path data-name="パス 1649" d="M748.769 1122.881a.335.335 0 0 1-.149-.035c-1.049-.525-1-2.406-.973-3.65 0-.16.007-.3.007-.426a.333.333 0 0 1 .666 0c0 .125 0 .275-.007.442-.022.877-.066 2.7.606 3.039a.333.333 0 0 1-.15.63z" transform="translate(-646.519 -1083.928)" style="fill:#535e76"/>
        </g>
        <g data-name="グループ 1269">
            <path data-name="パス 1650" d="M689.695 1103.531a.332.332 0 0 1-.2-.6 3.188 3.188 0 0 0 .9-2.372c.015-.147.031-.293.049-.433a30.4 30.4 0 0 0 .067-4.966c-.033-.826-.069-1.681-.069-2.517a.332.332 0 0 1 .665 0c0 .822.035 1.67.067 2.488a30.882 30.882 0 0 1-.07 5.077c-.017.137-.032.277-.048.42a3.716 3.716 0 0 1-1.158 2.833.332.332 0 0 1-.203.07z" transform="translate(-603.501 -1064.642)" style="fill:#535e76"/>
        </g>
        <g data-name="グループ 1270">
            <path data-name="パス 1651" d="M687 1162.344a.192.192 0 0 1-.034 0 .332.332 0 0 1-.3-.363l.076-.732a23.071 23.071 0 0 0 .2-3.3c-.088-2.207-.311-4.083-.526-5.9a44.367 44.367 0 0 1-.412-8.955c.11-1.6.172-3.255.232-4.858.045-1.205.09-2.409.154-3.594.088-1.621.176-3.694.176-4.674 0-1.5.176-1.5.42-1.5a.34.34 0 0 1 .337.346v.121a.334.334 0 0 1-.04.158c-.024.29-.053.767-.053.874 0 .992-.09 3.08-.177 4.709-.064 1.182-.11 2.381-.155 3.584a152.919 152.919 0 0 1-.232 4.878 43.8 43.8 0 0 0 .409 8.832c.217 1.827.441 3.715.531 5.948a24.133 24.133 0 0 1-.2 3.393l-.076.727a.332.332 0 0 1-.33.306z" transform="translate(-600.963 -1091.336)" style="fill:#535e76"/>
        </g>
        <g data-name="グループ 1271">
            <path data-name="パス 1652" d="M749.805 1155.888a.332.332 0 0 1-.333-.332c0-3.148.2-5.707.383-8.181a74.18 74.18 0 0 0 .264-10.34c-.031-.575-.025-1.2-.02-1.859.018-2.126.04-4.536-1.19-5.744a.332.332 0 0 1 .466-.474c1.43 1.4 1.408 3.965 1.39 6.223-.006.65-.011 1.263.018 1.819a74.608 74.608 0 0 1-.266 10.425c-.187 2.462-.38 5.008-.38 8.131a.333.333 0 0 1-.332.332z" transform="translate(-647.386 -1091.624)" style="fill:#535e76"/>
        </g>
        <g data-name="グループ 1272">
            <path data-name="パス 1653" d="M611.333 1130.632a.322.322 0 0 1-.147-.035.331.331 0 0 1-.149-.446c2.532-5.064 8.437-5.611 13.648-6.093 1.359-.126 2.644-.244 3.806-.438a3.822 3.822 0 0 0 1.954-1.463c.7-.783 1.427-1.592 2.465-1.592a.333.333 0 1 1 0 .665c-.74 0-1.337.666-1.97 1.371a4.332 4.332 0 0 1-2.338 1.674c-1.187.2-2.483.319-3.854.445-5.037.466-10.747 1-13.114 5.729a.332.332 0 0 1-.301.183z" transform="translate(-545.656 -1085.498)" style="fill:#535e76"/>
        </g>
        <g data-name="グループ 1273">
            <path data-name="パス 1654" d="M776.526 1153.644a.332.332 0 0 1-.318-.237 107.751 107.751 0 0 0-4.875-13.184c-1.366-2.9-3.075-6.169-6.077-8.171-2.337-1.558-5.109-2-7.79-2.428a36.013 36.013 0 0 1-4.46-.907 5.355 5.355 0 0 1-2.548-1.506 7.042 7.042 0 0 1-.511-.683c-.435-.631-.809-1.176-1.539-1.176a.333.333 0 0 1 0-.665 2.546 2.546 0 0 1 2.087 1.465 6.477 6.477 0 0 0 .461.618 4.694 4.694 0 0 0 2.238 1.309 35.493 35.493 0 0 0 4.378.889c2.751.439 5.6.893 8.054 2.532 3.142 2.1 4.9 5.455 6.309 8.44a108.381 108.381 0 0 1 4.91 13.275.332.332 0 0 1-.223.414.318.318 0 0 1-.096.015z" transform="translate(-646.843 -1088.542)" style="fill:#535e76"/>
        </g>
        <g data-name="グループ 1274">
            <path data-name="パス 1655" d="M803.2 1237.418a.366.366 0 0 1-.066-.007.332.332 0 0 1-.26-.391 50.722 50.722 0 0 0 .711-6.07c.117-1.56.292-3.14.459-4.668.2-1.851.415-3.767.525-5.649.03-.5.033-1.027.037-1.586a11.419 11.419 0 0 1 .748-4.924.332.332 0 0 1 .595.3 10.782 10.782 0 0 0-.678 4.631c0 .568-.009 1.1-.038 1.621-.112 1.9-.324 3.822-.528 5.683-.168 1.523-.34 3.1-.458 4.646a51.126 51.126 0 0 1-.721 6.151.334.334 0 0 1-.326.263z" transform="translate(-687.292 -1154.426)" style="fill:#535e76"/>
        </g>
        <g data-name="グループ 1275">
            <path data-name="パス 1656" d="M810.714 1274.313a.332.332 0 0 1-.307-.205c-.478-1.147-.924-2.592-1.4-4.123a38.83 38.83 0 0 0-1.933-5.382.334.334 0 0 1 .149-.447.33.33 0 0 1 .445.149 39.222 39.222 0 0 1 1.975 5.483c.467 1.515.909 2.946 1.375 4.063a.333.333 0 0 1-.178.435.343.343 0 0 1-.126.027z" transform="translate(-690.371 -1191.47)" style="fill:#535e76"/>
        </g>
        <g data-name="グループ 1276">
            <path data-name="パス 1657" d="M632.98 1222.38a.334.334 0 0 1-.328-.278 20.849 20.849 0 0 1-.285-2.354c-.031-.436-.066-.931-.172-1.809a.332.332 0 1 1 .66-.079c.108.895.142 1.4.174 1.842a20.245 20.245 0 0 0 .279 2.292.332.332 0 0 1-.274.382.305.305 0 0 1-.054.004z" transform="translate(-561.298 -1157.104)" style="fill:#535e76"/>
        </g>
        <g data-name="グループ 1277">
            <path data-name="パス 1658" d="M697.25 1150.956a16.342 16.342 0 0 1-5.18-.813c-1.543-.537-3.665-1.393-4.284-2.632a.332.332 0 1 1 .594-.3c.571 1.139 3.083 2.013 3.909 2.3 2.9 1.007 7.491 1.209 10.3-.4a4.8 4.8 0 0 0 2.458-3.327.333.333 0 0 1 .653.131 5.444 5.444 0 0 1-2.781 3.773 11.693 11.693 0 0 1-5.669 1.268z" transform="translate(-602.311 -1103.923)" style="fill:#535e76"/>
        </g>
        <g data-name="グループ 1278">
            <path data-name="パス 1659" d="M492.823 1144.557a.333.333 0 0 1-.289-.169c-.543-.957.432-1.977 1.291-2.878a9 9 0 0 0 .92-1.061 3.123 3.123 0 0 1 3.156-1.7.332.332 0 0 1 .284.375.328.328 0 0 1-.374.284c-1.03-.139-1.734.257-2.514 1.415a9.471 9.471 0 0 1-.99 1.149c-.7.734-1.493 1.565-1.195 2.092a.331.331 0 0 1-.124.452.324.324 0 0 1-.165.041z" transform="translate(-458.087 -1098.896)" style="fill:#535e76"/>
        </g>
        <g data-name="グループ 1279">
            <path data-name="パス 1660" d="M361.735 1228.366a.325.325 0 0 1-.148-.035.331.331 0 0 1-.149-.445c.152-.3 1.5-2.252 3.244-4.765.825-1.188 1.537-2.213 1.659-2.409a5.455 5.455 0 0 1 .819-.946 3.227 3.227 0 0 0 .92-1.234 5.682 5.682 0 0 0 .166-1.717 5.292 5.292 0 0 1 .389-2.417 20.6 20.6 0 0 1 2.205-3.435 26.954 26.954 0 0 0 1.683-2.457 66.73 66.73 0 0 0 6.425-15.8c.712-2.636 1.2-5.412 1.662-8.1a64.862 64.862 0 0 1 2.705-11.411 24.794 24.794 0 0 1 11.463-12.936.333.333 0 1 1 .3.595 24.091 24.091 0 0 0-11.138 12.573 64.426 64.426 0 0 0-2.673 11.294c-.47 2.7-.956 5.492-1.676 8.157a67.38 67.38 0 0 1-6.491 15.954 27.886 27.886 0 0 1-1.723 2.52 19.991 19.991 0 0 0-2.137 3.319 4.683 4.683 0 0 0-.327 2.133 6.322 6.322 0 0 1-.195 1.913 3.765 3.765 0 0 1-1.089 1.515 4.873 4.873 0 0 0-.723.826c-.131.209-.814 1.193-1.678 2.436-1.215 1.75-3.052 4.4-3.2 4.683a.332.332 0 0 1-.293.189z" transform="translate(-361.403 -1114.779)" style="fill:#535e76"/>
        </g>
        <g data-name="グループ 1280">
            <path data-name="パス 1661" d="M505.793 1201.319a3.059 3.059 0 0 1-.9-.117c-.808-.253-6.129-6.3-6.354-6.559a88.16 88.16 0 0 1-7.759-11.252c-1.757-2.819-3.573-5.736-5.7-8.866-1.948-2.867-5.323-6.154-8.949-6.779a6.478 6.478 0 0 0-5.1 1.231.332.332 0 0 1-.393-.536 7.121 7.121 0 0 1 5.607-1.35c3.829.66 7.359 4.08 9.385 7.06 2.135 3.141 4.036 6.194 5.714 8.888a87.779 87.779 0 0 0 7.694 11.165 67.935 67.935 0 0 0 6.065 6.367c1.554.486 5.59-1.139 7.014-1.806a.332.332 0 0 1 .282.6c-.191.092-4.191 1.954-6.606 1.954z" transform="translate(-441.94 -1119.76)" style="fill:#535e76"/>
        </g>
        <g data-name="グループ 1281">
            <path data-name="パス 1662" d="M631.881 1246.02a.332.332 0 0 1-.263-.535c1.267-1.648 4.055-2.421 5.193-2.675a2.99 2.99 0 0 1 .924 0 2.215 2.215 0 0 0 .577.018 13.615 13.615 0 0 0 2.642-1.514c.794-.535 1.558-1.027 2.319-1.516a40.25 40.25 0 0 0 6.6-4.92 33.289 33.289 0 0 1 4.038-3.657.332.332 0 1 1 .327.579 36.6 36.6 0 0 0-3.9 3.554 41.294 41.294 0 0 1-6.711 5c-.756.488-1.517.977-2.273 1.487a14.156 14.156 0 0 1-2.834 1.614 2.166 2.166 0 0 1-.858.014 2.754 2.754 0 0 0-.711-.016c-.835.188-3.645.915-4.812 2.433a.332.332 0 0 1-.258.134z" transform="translate(-560.824 -1167.154)" style="fill:#535e76"/>
        </g>
        <g data-name="グループ 1282">
            <path data-name="パス 1663" d="M656.262 1288.353a.334.334 0 0 1-.278-.147c-1.309-1.963-1.418-4.559-1.418-7.051 0-.934.017-1.69.052-2.375.008-.133.1-.825.151-1.215.18-1.336.176-1.335.493-1.328a.342.342 0 0 1 .325.341.366.366 0 0 1-.021.118 53.173 53.173 0 0 0-.283 2.119 44.786 44.786 0 0 0-.052 2.34c0 2.39.1 4.874 1.306 6.682a.332.332 0 0 1-.275.517z" transform="translate(-577.815 -1200.414)" style="fill:#535e76"/>
        </g>
        <g data-name="グループ 1283">
            <path data-name="パス 1664" d="M659.914 1274.288a.332.332 0 0 1-.186-.609c1.583-1.056 4.688-3.811 7.183-6.024 1.125-1 2.1-1.859 2.766-2.423a89.781 89.781 0 0 0 6.695-7.182.332.332 0 1 1 .517.418 90.858 90.858 0 0 1-6.784 7.273c-.663.558-1.632 1.416-2.753 2.411-2.51 2.227-5.635 5-7.254 6.079a.326.326 0 0 1-.184.057z" transform="translate(-581.517 -1186.898)" style="fill:#535e76"/>
        </g>
        <g data-name="グループ 1284">
            <path data-name="パス 1665" d="M628.89 1301.423a.826.826 0 0 1-.446-.109c-1.069-.668-1.921-2.946-2.146-3.881a20.337 20.337 0 0 1 .342-9.125.332.332 0 1 1 .644.162 19.41 19.41 0 0 0-.339 8.807c.22.921 1.015 2.95 1.851 3.473.106.049.506.036 1.968-.628.1-.044.175-.08.235-.1.215-.092.462-.191.73-.3 2.419-.965 4.731-2.061 4.129-3.864a.333.333 0 0 1 .631-.21c.849 2.549-2.508 3.891-4.513 4.692a15.702 15.702 0 0 0-.937.392 6.186 6.186 0 0 1-2.149.691z" transform="translate(-556.663 -1209.139)" style="fill:#535e76"/>
        </g>
        <g data-name="グループ 1285">
            <path data-name="パス 1666" d="M502.394 1274.363a2.714 2.714 0 0 1-.617-.064 12.949 12.949 0 0 1-5.735-3.576c-1.1-1.022-2.986-2.471-4.813-3.871-1.547-1.187-3.01-2.308-3.966-3.143a126.436 126.436 0 0 1-14.54-15.194c-.954-1.147-1.8-1.582-2.583-1.334a.332.332 0 1 1-.2-.633c1.068-.338 2.148.164 3.3 1.541a125.6 125.6 0 0 0 14.465 15.119c.941.821 2.4 1.936 3.934 3.116 1.84 1.41 3.743 2.869 4.827 3.882a12.507 12.507 0 0 0 5.469 3.447c1.932.461 7.619-2.353 9.646-3.474a.332.332 0 1 1 .321.581c-.289.157-6.553 3.603-9.508 3.603z" transform="translate(-441.353 -1178.423)" style="fill:#535e76"/>
        </g>
        <g data-name="グループ 1286">
            <path data-name="パス 1667" d="M596.118 1300.772a.319.319 0 0 1-.08-.011.331.331 0 0 1-.241-.4c.2-.789.42-1.582.638-2.35s.44-1.56.637-2.345a.332.332 0 0 1 .645.162c-.2.794-.423 1.592-.641 2.364s-.438 1.552-.633 2.331a.333.333 0 0 1-.325.249z" transform="translate(-534.424 -1214.569)" style="fill:#535e76"/>
        </g>
        <g data-name="グループ 1287">
            <path data-name="パス 1668" d="M495.087 1162.044a.334.334 0 0 1-.3-.183 15.857 15.857 0 0 0-1.177-1.912 41.15 41.15 0 0 0-.612-.831.336.336 0 0 1-.089-.109.345.345 0 0 1 .125-.444c.3-.176.392-.042 1.121 1.006a16.709 16.709 0 0 1 1.226 1.993.332.332 0 0 1-.3.481z" transform="translate(-458.457 -1113.501)" style="fill:#535e76"/>
        </g>
        <g data-name="グループ 1288">
            <path data-name="パス 1669" d="M518.9 1168.194a.332.332 0 0 1-.33-.3 36.09 36.09 0 0 0-2.3-6.653 67.632 67.632 0 0 0-5.227-9.6l-.487-.728c-.766-1.141-1.558-2.322-2.263-3.53-.053-.089-.12-.2-.195-.321a5.527 5.527 0 0 1-1.01-2.274.333.333 0 0 1 .665 0 5.957 5.957 0 0 0 .911 1.927c.079.127.148.24.2.334.695 1.19 1.481 2.362 2.242 3.495l.487.729a68.383 68.383 0 0 1 5.281 9.692 36.847 36.847 0 0 1 2.357 6.865.334.334 0 0 1-.3.363z" transform="translate(-468.948 -1103.134)" style="fill:#535e76"/>
        </g>
        <g data-name="グループ 1289">
            <path data-name="パス 1670" d="M557.321 1190.379a.333.333 0 0 1-.236-.568c.807-.807.555-2.792.373-4.241-.061-.48-.119-.933-.131-1.291a56.9 56.9 0 0 0-2.648-15.632.333.333 0 0 1 .631-.21 57.631 57.631 0 0 1 2.681 15.818c.013.327.068.767.127 1.231.212 1.674.475 3.758-.561 4.8a.332.332 0 0 1-.236.093z" transform="translate(-504.066 -1120.67)" style="fill:#535e76"/>
        </g>
        <g data-name="グループ 1290">
            <path data-name="パス 1671" d="M562.049 1177.636h-.013a.331.331 0 0 1-.318-.344c0-.121-.024-.933-.049-1.72-.053-1.558-.085-2.593-.065-2.784.058-.594.158-.992.471-1.141.334-.158.659.055 1.109.351.142.093.3.2.482.306a6.9 6.9 0 0 0 .764.37c-.084-.138-.169-.273-.223-.36a2.291 2.291 0 0 1-.215-.371 10.667 10.667 0 0 0-.546-1.2 10.369 10.369 0 0 1-.62-1.4l-.3-.887c-.4-1.182-.815-2.407-1.133-3.638-.155-.6-.272-1.2-.385-1.785a9.989 9.989 0 0 0-1.548-4.328.332.332 0 0 1 .532-.4 10.646 10.646 0 0 1 1.669 4.6c.111.574.226 1.169.375 1.744.313 1.208.723 2.421 1.12 3.593l.3.889a9.628 9.628 0 0 0 .583 1.306 11.106 11.106 0 0 1 .578 1.277l.153.243c.518.826.712 1.136.464 1.383-.389.389-1.56-.261-1.909-.469-.191-.114-.358-.225-.507-.323a4.243 4.243 0 0 0-.452-.274 2.591 2.591 0 0 0-.1.576c-.016.173.035 1.692.069 2.7s.054 1.627.049 1.766a.332.332 0 0 1-.335.32zm2.63-4.5z" transform="translate(-507.558 -1113.262)" style="fill:#535e76"/>
        </g>
        <g data-name="グループ 1291">
            <path data-name="パス 1672" d="M580.762 1181.361a.333.333 0 0 1-.323-.255c-.03-.13-3.074-13.01-4.616-18.337a10.938 10.938 0 0 0-1.038-2.373 6.686 6.686 0 0 1-1.059-3.608.332.332 0 1 1 .665 0 6.051 6.051 0 0 0 .977 3.289 11.71 11.71 0 0 1 1.093 2.507c1.546 5.343 4.594 18.24 4.625 18.368a.333.333 0 0 1-.248.4.329.329 0 0 1-.076.009z" transform="translate(-518.139 -1111.992)" style="fill:#535e76"/>
        </g>
        <g data-name="グループ 1292">
            <path data-name="パス 1673" d="M616.336 1189.931a.332.332 0 0 1-.317-.235l-6.307-20.441a.332.332 0 0 1 .635-.2l6.307 20.441a.332.332 0 0 1-.22.416.32.32 0 0 1-.098.019z" transform="translate(-544.693 -1121.123)" style="fill:#535e76"/>
        </g>
        <g data-name="グループ 1293">
            <path data-name="パス 1674" d="M602.845 1248.557a7.285 7.285 0 0 1-5.081-1.98.332.332 0 0 1 .47-.47 6.831 6.831 0 0 0 5.694 1.7 4.646 4.646 0 0 0 3.568-2.44.333.333 0 1 1 .594.3 5.3 5.3 0 0 1-4.054 2.8 7.476 7.476 0 0 1-1.191.09z" transform="translate(-535.812 -1177.491)" style="fill:#535e76"/>
        </g>
        <g data-name="グループ 1294">
            <path data-name="パス 1675" d="M599.716 1249.015a6.629 6.629 0 0 1-4.681-1.443 5.461 5.461 0 0 1-.814-2.384l-.02-.108c-.08-.415-.2-.854-.319-1.318a8.464 8.464 0 0 1-.431-3.727 3.329 3.329 0 0 1 .569-1.2 5.119 5.119 0 0 0 .322-.531.332.332 0 0 1 .594.3 5.767 5.767 0 0 1-.361.6 2.78 2.78 0 0 0-.474.968 8.012 8.012 0 0 0 .423 3.426c.126.476.245.925.329 1.363l.02.11a5.919 5.919 0 0 0 .645 2.051 6.027 6.027 0 0 0 4.3 1.233c2.7-.024 5.286-.963 6.584-2.392.825-.908-.232-3.788-.8-5.336-.138-.375-.256-.7-.336-.949-.218-.694-1-2.024-1.506-2.024a.333.333 0 1 1 0-.665c1.12 0 2.011 2.079 2.141 2.488.076.242.192.557.325.921.7 1.914 1.763 4.806.667 6.012-1.72 1.892-4.78 2.589-7.07 2.61z" transform="translate(-532.64 -1171.437)" style="fill:#535e76"/>
        </g>
        <g data-name="グループ 1295">
            <path data-name="パス 1676" d="M602.786 1282.3a.333.333 0 0 1-.324-.26l-1.064-4.77a.333.333 0 0 1 .253-.4.336.336 0 0 1 .4.252l1.064 4.769a.334.334 0 0 1-.253.4.378.378 0 0 1-.076.009z" transform="translate(-538.56 -1200.881)" style="fill:#535e76"/>
        </g>
        <g data-name="グループ 1296">
            <path data-name="パス 1677" d="M582.433 1245.109a.328.328 0 0 1-.105-.017.332.332 0 0 1-.209-.421 15.648 15.648 0 0 0 .409-7.138 36.646 36.646 0 0 1-.251-3.87.333.333 0 1 1 .665 0 36.313 36.313 0 0 0 .247 3.8 16.38 16.38 0 0 1-.441 7.416.331.331 0 0 1-.315.23z" transform="translate(-524.321 -1168.741)" style="fill:#535e76"/>
        </g>
        <g data-name="グループ 1297">
            <path data-name="パス 1678" d="M543.969 1334.724a.322.322 0 0 1-.148-.035.333.333 0 0 1-.149-.445c.486-.971 1.1-2.238 1.719-3.5s1.213-2.48 1.68-3.416a.332.332 0 1 1 .594.3c-.467.932-1.069 2.167-1.677 3.409-.616 1.26-1.236 2.529-1.721 3.5a.334.334 0 0 1-.298.187z" transform="translate(-495.928 -1237.996)" style="fill:#535e76"/>
        </g>
        <g data-name="グループ 1298">
            <path data-name="パス 1679" d="M520.563 1331.575a.327.327 0 0 1-.184-.057.331.331 0 0 1-.092-.46c1.757-2.636 5.078-10.365 6.208-13.548a.332.332 0 0 1 .627.222c-1.114 3.139-4.427 10.915-6.282 13.7a.333.333 0 0 1-.277.143z" transform="translate(-478.649 -1230.718)" style="fill:#535e76"/>
        </g>
        <g data-name="グループ 1299">
            <path data-name="パス 1680" d="M566.729 1168a.33.33 0 0 1-.185-.056c-.29-.193-.689-.423-1.111-.668a12.942 12.942 0 0 1-2.37-1.588.333.333 0 0 1 .47-.471 12.585 12.585 0 0 0 2.233 1.484c.432.249.84.486 1.148.691a.332.332 0 0 1-.185.609z" transform="translate(-510.197 -1118.386)" style="fill:#535e76"/>
        </g>
        <g data-name="グループ 1300">
            <path data-name="パス 1681" d="M819.469 1273.028a.305.305 0 0 1-.086-.012.332.332 0 0 1-.235-.406l10.732-39.923a.332.332 0 0 1 .642.172l-10.732 39.923a.334.334 0 0 1-.321.246z" transform="translate(-699.3 -1168.084)" style="fill:#535e76"/>
        </g>
        <g data-name="グループ 1301">
            <path data-name="パス 1682" d="M966.113 1256.847a.344.344 0 0 1-.091-.011.333.333 0 0 1-.229-.41l10.425-36.8a.333.333 0 0 1 .64.181l-10.424 36.8a.332.332 0 0 1-.321.24z" transform="translate(-807.552 -1158.444)" style="fill:#535e76"/>
        </g>
        <g data-name="グループ 1302">
            <path data-name="パス 1683" d="M814.932 1369.056a.333.333 0 0 1-.066-.658l38.347-7.876a.332.332 0 1 1 .133.651L815 1369.05a.355.355 0 0 1-.068.006z" transform="translate(-695.951 -1262.628)" style="fill:#535e76"/>
        </g>
        <g data-name="グループ 1303">
            <path data-name="パス 1684" d="M860.741 1223.522a.333.333 0 0 1-.03-.664l37.965-3.413a.333.333 0 1 1 .06.662l-37.965 3.413z" transform="translate(-729.767 -1158.49)" style="fill:#535e76"/>
        </g>
        <g data-name="グループ 1304">
            <path data-name="パス 1685" d="M814.932 1269.506a.3.3 0 0 1-.087-.012.331.331 0 0 1-.233-.407l11.192-40.94a.332.332 0 1 1 .641.175l-11.192 40.94a.332.332 0 0 1-.321.244z" transform="translate(-695.951 -1164.733)" style="fill:#535e76"/>
        </g>
        <g data-name="グループ 1305">
            <path data-name="パス 1686" d="M862.338 1219.837a.333.333 0 0 1-.03-.664l32.683-3a.332.332 0 1 1 .06.662l-32.683 3z" transform="translate(-730.946 -1156.076)" style="fill:#535e76"/>
        </g>
        <g data-name="グループ 1306">
            <path data-name="パス 1687" d="M735.2 1367.008a.336.336 0 0 1-.1-.015l-26.293-8.086a.332.332 0 1 1 .2-.634l26.293 8.085a.333.333 0 0 1-.1.651z" transform="translate(-617.684 -1260.961)" style="fill:#535e76"/>
        </g>
        <g data-name="グループ 1307">
            <path data-name="パス 1688" d="M735.839 1361.318a.327.327 0 0 1-.1-.014l-26.454-8.013a.332.332 0 1 1 .192-.636l26.455 8.014a.332.332 0 0 1-.1.65z" transform="translate(-618.034 -1256.815)" style="fill:#535e76"/>
        </g>
        <g data-name="グループ 1308">
            <path data-name="パス 1689" d="M708.828 1340.375a.332.332 0 0 1-.045-.661l31.033-4.318a.333.333 0 0 1 .092.659l-31.034 4.317a.328.328 0 0 1-.046.003z" transform="translate(-617.626 -1244.083)" style="fill:#535e76"/>
        </g>
        <g data-name="グループ 1309">
            <path data-name="パス 1690" d="M708.183 1354.267h-.016a.334.334 0 0 1-.317-.347l.072-1.595a.316.316 0 0 1 .346-.317.332.332 0 0 1 .318.346l-.072 1.595a.332.332 0 0 1-.331.318z" transform="translate(-617.149 -1256.346)" style="fill:#535e76"/>
        </g>
        <g data-name="グループ 1310">
            <path data-name="パス 1691" d="M858.73 1229.59a.333.333 0 0 1-.283-.157l-.656-1.056a.333.333 0 0 1 .565-.351l.655 1.056a.333.333 0 0 1-.282.508z" transform="translate(-727.798 -1164.708)" style="fill:#535e76"/>
        </g>
        <g data-name="グループ 1311">
            <path data-name="パス 1692" d="M995.041 1218.019a.351.351 0 0 1-.063-.006l-3.756-.719a.333.333 0 0 1 .126-.653l3.755.719a.332.332 0 0 1-.062.659z" transform="translate(-826.134 -1156.417)" style="fill:#535e76"/>
        </g>
        <g data-name="グループ 1312">
            <path data-name="パス 1693" d="M766.18 1362.9a.336.336 0 0 1-.09-.013l-17.834-5.05a.333.333 0 0 1 .181-.64l17.834 5.05a.333.333 0 0 1-.09.653z" transform="translate(-646.797 -1260.172)" style="fill:#535e76"/>
        </g>
        <g data-name="グループ 1313">
            <path data-name="パス 1694" d="M748.36 1349.964a.332.332 0 0 1-.046-.661l19.893-2.778a.332.332 0 0 1 .091.658l-19.894 2.778a.339.339 0 0 1-.044.003z" transform="translate(-646.808 -1252.298)" style="fill:#535e76"/>
        </g>
        <g data-name="グループ 1314">
            <path data-name="パス 1695" d="M689.1 1323.892a3.584 3.584 0 0 1-1.651-.385 5.238 5.238 0 0 0-.914-.32c-1.1-.314-2.464-.7-2.116-2.939a.332.332 0 0 1 .657.1c-.258 1.655.582 1.9 1.643 2.2a5.8 5.8 0 0 1 1.032.366c1.015.514 2.127.412 3.968-.362a5.207 5.207 0 0 1 1.448-.4 3.105 3.105 0 0 0 1.4-.514.724.724 0 0 0 .3-.592c-.008-.076-.042-.161-.219-.216a.332.332 0 1 1 .2-.635.915.915 0 0 1 .684.769 1.369 1.369 0 0 1-.614 1.244 3.744 3.744 0 0 1-1.652.6 4.527 4.527 0 0 0-1.287.353 7.617 7.617 0 0 1-2.879.731z" transform="translate(-599.813 -1232.695)" style="fill:#535e76"/>
        </g>
        <g data-name="グループ 1315">
            <path data-name="パス 1696" d="M686.634 1313.335a6.167 6.167 0 0 1-2.452-.459c-1.211-.52-2.5-1.817-2.477-3.008a1.649 1.649 0 0 1 1.259-1.52.332.332 0 0 1 .235.622c-.541.206-.821.513-.83.913-.016.774.972 1.909 2.073 2.381 1.587.679 3.426.357 5.049.072l.544-.094c2.631-.443 3.027-.992 3.086-1.15.015-.041.057-.15-.124-.371a.333.333 0 0 1 .515-.422 1 1 0 0 1 .231 1.027c-.263.7-1.4 1.2-3.578 1.568l-.559.1a17.427 17.427 0 0 1-2.972.341z" transform="translate(-597.849 -1224.103)" style="fill:#535e76"/>
        </g>
        <g data-name="グループ 1316">
            <path data-name="パス 1697" d="M689.55 1305.107a10.214 10.214 0 0 1-1.591-.117 4.121 4.121 0 0 1-2.942-2.617 1.993 1.993 0 0 1 .278-2.085.332.332 0 0 1 .492.447 1.42 1.42 0 0 0-.143 1.418 3.478 3.478 0 0 0 2.419 2.181 14.2 14.2 0 0 0 4.059-.1c.329-.044.62-.082.863-.1a8.258 8.258 0 0 1 1.028 0 5.155 5.155 0 0 0 1.4-.071c.4-.1.4-.274.405-.34a1.36 1.36 0 0 0-.861-1.023.333.333 0 0 1 .2-.636 2 2 0 0 1 1.329 1.678 1.027 1.027 0 0 1-.909.967 5.78 5.78 0 0 1-1.583.089 8.129 8.129 0 0 0-.949 0c-.234.02-.514.058-.831.1a19.908 19.908 0 0 1-2.664.209z" transform="translate(-600.172 -1218.088)" style="fill:#535e76"/>
        </g>
        <g data-name="グループ 1317">
            <path data-name="パス 1698" d="M696.416 1296.518a32.211 32.211 0 0 1-4.37-.522l-.858-.137c-1.372-.214-3.074-1.29-3.326-2.491a1.5 1.5 0 0 1 .806-1.625.332.332 0 1 1 .358.56c-.42.269-.589.573-.514.928.171.816 1.521 1.774 2.778 1.971l.861.137c2.017.322 4.525.724 5.13.393.224-.124.361-.256.357-.347s-.158-.507-1.892-1.244a7.554 7.554 0 0 0-1.637-.428 3.612 3.612 0 0 1-2.787-1.48.333.333 0 0 1 .563-.354c.537.854 1.334 1 2.342 1.181a8.01 8.01 0 0 1 1.779.469c1.578.672 2.265 1.216 2.3 1.822.018.373-.217.7-.7.963a2.577 2.577 0 0 1-1.19.204z" transform="translate(-602.371 -1211.823)" style="fill:#535e76"/>
        </g>
        <g data-name="グループ 1318">
            <path data-name="パス 1699" d="M735.894 1298.471c-1.7 0-3.491-.085-4.466-.151l-.228-.015c-1.961-.13-3.989-.265-4.19-1.314a.687.687 0 0 1 .137-.567c.416-.536 1.615-.652 3.023-.737l.343-.022c2.425-.171 7.836.128 8.065.141a.333.333 0 0 1-.037.664c-.056 0-5.6-.31-7.981-.142l-.35.023c-.68.041-2.272.138-2.539.481.1.58 2.445.736 3.573.811l.228.016a57.85 57.85 0 0 0 6.757.073 6.8 6.8 0 0 0 2.815-.6.078.078 0 0 0 0-.1 1.89 1.89 0 0 0-1.2-.437.326.326 0 0 1-.348-.316.333.333 0 0 1 .316-.348 2.408 2.408 0 0 1 1.793.741.741.741 0 0 1 .031.768c-.239.467-1.365.785-3.347.949-.699.061-1.534.082-2.395.082z" transform="translate(-631.282 -1214.717)" style="fill:#535e76"/>
        </g>
        <g data-name="グループ 1319">
            <path data-name="パス 1700" d="M734.889 1308.651c-3.1 0-4.73-1.213-5.553-2.23-.633-.784-2.076-5.594-2.237-6.14a.332.332 0 1 1 .637-.189 38.223 38.223 0 0 0 2.119 5.911c.73.905 2.2 1.983 5.035 1.983 1.924 0 3.395-.27 4.319-1.587a13.973 13.973 0 0 0 1.974-4.744.333.333 0 0 1 .649.146 14.694 14.694 0 0 1-2.078 4.979c-1.154 1.644-3.02 1.871-4.865 1.871z" transform="translate(-631.347 -1217.848)" style="fill:#535e76"/>
        </g>
        <g data-name="グループ 1320">
            <path data-name="パス 1701" d="M723.559 1306.888a.333.333 0 0 1-.152-.629 2.349 2.349 0 0 1 1.727-.206.332.332 0 1 1-.262.611 1.728 1.728 0 0 0-1.162.187.337.337 0 0 1-.151.037z" transform="translate(-628.499 -1222.35)" style="fill:#535e76"/>
        </g>
        <g data-name="グループ 1321">
            <path data-name="パス 1702" d="M726.662 1322.566a3.748 3.748 0 0 1-2.34-.736.333.333 0 0 1 .411-.522 3.6 3.6 0 0 0 2.736.52.332.332 0 0 1 .121.654 5.232 5.232 0 0 1-.928.084z" transform="translate(-629.215 -1233.633)" style="fill:#535e76"/>
        </g>
        <g data-name="グループ 1322">
            <path data-name="パス 1703" d="m570.473 1398.972-6.843-.006-101.392-.134a.333.333 0 0 1 0-.665l108.237.141a.332.332 0 0 1 0 .664z" transform="translate(-435.593 -1290.423)" style="fill:#535e76"/>
        </g>
        <g data-name="グループ 1323">
            <path data-name="パス 1704" d="M466.813 1362.066a.332.332 0 0 1-.14-.634l25.156-11.647a.332.332 0 1 1 .279.6l-25.154 11.648a.325.325 0 0 1-.141.033z" transform="translate(-438.97 -1254.684)" style="fill:#535e76"/>
        </g>
        <g data-name="グループ 1324">
            <path data-name="パス 1705" d="m547.916 1429.876-83.715-.016a.333.333 0 0 1 0-.666l83.715.017a.332.332 0 0 1 0 .665z" transform="translate(-437.042 -1313.327)" style="fill:#535e76"/>
        </g>
        <g data-name="グループ 1325">
            <path data-name="パス 1706" d="M462.11 1406.219a.332.332 0 0 1-.331-.334l.047-6.894a.333.333 0 0 1 .665 0l-.047 6.894a.332.332 0 0 1-.334.334z" transform="translate(-435.499 -1290.788)" style="fill:#535e76"/>
        </g>
        <g data-name="グループ 1326">
            <path data-name="パス 1707" d="M643.53 1273.741a.334.334 0 0 1-.3-.183 5.469 5.469 0 0 1-.327-.929 8.88 8.88 0 0 0-.127-.422.333.333 0 0 1 .632-.211c.047.143.091.3.135.45a4.969 4.969 0 0 0 .282.814.333.333 0 0 1-.3.481z" transform="translate(-569.1 -1197.116)" style="fill:#535e76"/>
        </g>
        <g data-name="グループ 1327">
            <path data-name="パス 1708" d="M735.8 1243.8a8.47 8.47 0 0 1-2.812-.851 10.747 10.747 0 0 0-.441-.182c-.756-.275-2.021-.739-2.382-.872a45.91 45.91 0 0 1-2.4.582 13.77 13.77 0 0 0-2.586.776.333.333 0 0 1-.281-.6 14.375 14.375 0 0 1 2.732-.823c1.087-.224 2.447-.6 2.46-.6a.333.333 0 0 1 .2.008s1.591.585 2.479.908c.107.039.272.109.476.2 2.257.965 2.758.862 2.857.717.007-.009.015-.021.007-.06-.1-.484-1.472-1.384-2.06-1.768a5.806 5.806 0 0 1-.618-.434c-1.648-1.5-2.114-1.507-3.5-1.523a21.693 21.693 0 0 1-1.734-.074c-.228-.02-.6-.082-1.023-.154a9.909 9.909 0 0 0-3.1-.242.332.332 0 1 1-.281-.6c.582-.273 1.926-.076 3.492.188.413.07.769.13.969.147.692.06 1.22.066 1.685.073 1.445.016 2.1.024 3.939 1.7.068.062.3.218.536.368 1.156.758 2.205 1.5 2.346 2.194a.724.724 0 0 1-.108.562.958.958 0 0 1-.852.36z" transform="translate(-628.783 -1172.238)" style="fill:#535e76"/>
        </g>
        <g data-name="グループ 1328">
            <path data-name="パス 1709" d="M777.357 1224.052a.332.332 0 0 1-.1-.65 19.277 19.277 0 0 0 3.268-1.264c1.026-.521 1.887-1.381 1.864-1.624-.26-.193-1.479.257-2 .448a7.222 7.222 0 0 1-.706.237l-5.482 1.308-.155-.646 5.483-1.308c.135-.032.376-.121.631-.215 1.143-.421 2.13-.737 2.648-.326a.635.635 0 0 1 .242.578c-.081.8-1.534 1.79-2.225 2.141a19.921 19.921 0 0 1-3.373 1.307.329.329 0 0 1-.095.014z" transform="translate(-666.017 -1158.768)" style="fill:#535e76"/>
        </g>
        <g data-name="グループ 1329">
            <path data-name="パス 1710" d="M736.153 1259.791a1.985 1.985 0 0 1-.39-.038 15.941 15.941 0 0 1-2.026-.615c-.541-.19-1.1-.388-1.656-.526a20.53 20.53 0 0 0-4.9-.661c-.132-.007-.286 0-.446.012a2.9 2.9 0 0 1-1.922-.341.333.333 0 0 1 .413-.522 2.5 2.5 0 0 0 1.478.2 9.55 9.55 0 0 1 .484-.013 21.226 21.226 0 0 1 5.057.681c.585.145 1.16.348 1.717.544a15.79 15.79 0 0 0 1.941.591.947.947 0 0 0 .668-.077c.013-.012.037-.034.025-.119-.17-1.222-1.865-1.938-3.226-2.513-.429-.182-.835-.353-1.16-.526-.055-.03-.139-.066-.235-.11-.54-.241-.963-.45-1.1-.753a.332.332 0 0 1 .6-.286 3.1 3.1 0 0 0 .776.432c.115.051.213.1.278.13.3.159.69.326 1.1.5 1.517.64 3.4 1.438 3.625 3.034a.777.777 0 0 1-.228.7 1.275 1.275 0 0 1-.873.276z" transform="translate(-629.576 -1184.392)" style="fill:#535e76"/>
        </g>
        <g data-name="グループ 1330">
            <path data-name="パス 1711" d="M736.643 1236.193h-.043c-.59-.018-1.306-.692-2.424-1.789a10.339 10.339 0 0 0-2.208-1.84c-.873-.387-3.31-.117-4.177.021a.333.333 0 0 1-.1-.657c.338-.053 3.34-.508 4.55.029a10.345 10.345 0 0 1 2.4 1.972c.723.708 1.621 1.588 1.982 1.6.112 0 .18-.016.192-.037.03-.046.143-.343-.529-1.658a15.437 15.437 0 0 0-2.7-3.589c-.8-.68-1.93-.574-3.215-.378a32.614 32.614 0 0 1-3.982.272 73.26 73.26 0 0 0-1.691.059 6.718 6.718 0 0 1-1.04-.078 4.441 4.441 0 0 0-1.719-.014.333.333 0 0 1-.3-.594 4.314 4.314 0 0 1 2.1-.051 6.8 6.8 0 0 0 .928.073 74.565 74.565 0 0 1 1.706-.059 31.965 31.965 0 0 0 3.9-.266c1.449-.219 2.732-.332 3.744.53a15.965 15.965 0 0 1 2.864 3.792c.615 1.206.764 1.9.5 2.316a.8.8 0 0 1-.738.346z" transform="translate(-627.189 -1165.583)" style="fill:#535e76"/>
        </g>
        <g data-name="グループ 1331">
            <path data-name="パス 1712" d="M763.831 1233.6c-.737 0-1.458-1.046-1.834-1.592l-.063-.09a14.438 14.438 0 0 0-2.146-2.418.333.333 0 0 1 .454-.487 15.142 15.142 0 0 1 2.238 2.525l.065.092c.918 1.332 1.25 1.344 1.347 1.287.012-.046.131-.5-1.058-2.8l-.076-.148c-1.09-2.181-2.448-3.11-6.494-1.773a.332.332 0 1 1-.208-.63c3.906-1.292 5.884-.72 7.3 2.106l.073.141c1.174 2.269 1.4 3.336.8 3.681a.77.77 0 0 1-.398.106z" transform="translate(-652.565 -1164.005)" style="fill:#535e76"/>
        </g>
        <g data-name="グループ 1332">
            <path data-name="パス 1713" d="M747.938 1274.415h-.032a.331.331 0 0 1-.3-.363c.095-.975.115-1.986.132-2.965s.04-2.019.137-3.024a.327.327 0 0 1 .363-.3.332.332 0 0 1 .3.363c-.1.979-.115 1.993-.134 2.973s-.038 2.016-.136 3.016a.332.332 0 0 1-.33.3z" transform="translate(-646.497 -1194.157)" style="fill:#535e76"/>
        </g>
        <g data-name="グループ 1333">
            <path data-name="パス 1714" d="m1004.03 1320.661-20.334-.237a.332.332 0 0 1 0-.665l20.335.238a.332.332 0 0 1 0 .664z" transform="translate(-820.532 -1232.542)" style="fill:#535e76"/>
        </g>
        <g data-name="グループ 1334">
            <path data-name="パス 1715" d="M670.533 1315.37a.332.332 0 0 1-.277-.149 7.086 7.086 0 0 0-1.888-.829 10.028 10.028 0 0 1-1-.38.332.332 0 1 1 .3-.594c.176.087.538.213.923.345a5.025 5.025 0 0 1 2.223 1.09.332.332 0 0 1-.276.517z" transform="translate(-587.128 -1227.835)" style="fill:#535e76"/>
        </g>
        <g data-name="グループ 1335">
            <path data-name="パス 1716" d="M759.793 1243.176a.333.333 0 0 1-.131-.639l1.109-.473a.333.333 0 0 1 .261.612l-1.11.472a.321.321 0 0 1-.129.028z" transform="translate(-655.247 -1175.169)" style="fill:#535e76"/>
        </g>
        <g data-name="グループ 1336">
            <path data-name="パス 1717" d="M815.022 1317.938a.973.973 0 0 1-.863-.372c-.194-.278-.286-.8.381-1.683a13.31 13.31 0 0 1 2.057-1.987c.253-.212.5-.418.723-.617a1.8 1.8 0 0 1 2.12.027.332.332 0 1 1-.448.49 1.159 1.159 0 0 0-1.23-.021c-.229.2-.48.413-.739.63a12.682 12.682 0 0 0-1.952 1.876c-.38.506-.428.818-.368.9.043.063.306.177.993-.031a7.654 7.654 0 0 0 1.248-.473l.136-.067a4.331 4.331 0 0 0 1.255-.811.333.333 0 0 1 .471.471 5 5 0 0 1-1.43.936l-.134.067a8.275 8.275 0 0 1-1.353.514 3.058 3.058 0 0 1-.867.151z" transform="translate(-695.521 -1227.511)" style="fill:#535e76"/>
        </g>
        <g data-name="グループ 1337">
            <path data-name="パス 1718" d="M805.988 1314.564a1.6 1.6 0 0 1-.252-.02 1.014 1.014 0 0 1-.784-.548c-.462-.924.594-2.925.978-3.4.831-1.039 1.953-2.239 3.266-2.312a2.965 2.965 0 0 1 2.251 1.029.332.332 0 1 1-.469.47 2.346 2.346 0 0 0-1.745-.835c-1.051.058-2.039 1.133-2.783 2.063-.444.555-1.157 2.187-.9 2.692a.358.358 0 0 0 .3.188 2.068 2.068 0 0 0 1.438-.491.332.332 0 0 1 .469.47 2.813 2.813 0 0 1-1.769.694z" transform="translate(-688.745 -1224.066)" style="fill:#535e76"/>
        </g>
        <g data-name="グループ 1338">
            <path data-name="パス 1719" d="M798.529 1309.262a2.1 2.1 0 0 1-.268-.017 1.073 1.073 0 0 1-1.013-.772c-.5-2.479.4-3.977 2.017-5.591a4.571 4.571 0 0 0 .325-.4c.33-.433.7-.925 1.13-1.031 1.259-.317 2.263.737 3 1.5.1.1.189.2.277.286a.332.332 0 0 1-.471.469 9.663 9.663 0 0 1-.287-.3c-.657-.686-1.477-1.539-2.356-1.319-.2.05-.551.513-.761.789a4.951 4.951 0 0 1-.384.469c-1.5 1.5-2.276 2.792-1.836 4.99.022.113.2.211.45.244a.941.941 0 0 0 .81-.193.332.332 0 0 1 .595.3 1.344 1.344 0 0 1-1.228.576z" transform="translate(-683.041 -1218.985)" style="fill:#535e76"/>
        </g>
        <g data-name="グループ 1339">
            <path data-name="パス 1720" d="M791.072 1308.486a1.084 1.084 0 0 1-.512-.135c-.893-.475-1.565-2.3-1.384-3.749a5.857 5.857 0 0 1 1.039-2.35c1.439-1.728 1.827-2.053 4.228-.853a.333.333 0 1 1-.3.595c-2.012-1.007-2.091-.91-3.42.684a5.226 5.226 0 0 0-.89 2.006 3.619 3.619 0 0 0 1.037 3.08.4.4 0 0 0 .514-.087.333.333 0 0 1 .437.5 1.14 1.14 0 0 1-.749.309z" transform="translate(-677.161 -1218.46)" style="fill:#535e76"/>
        </g>
        <g data-name="グループ 1340">
            <path data-name="パス 1721" d="M710.062 1288.943a.335.335 0 0 1-.248-.11c-.2-.22-.393-.476-.6-.746a5.1 5.1 0 0 0-1.648-1.611 7.943 7.943 0 0 0-3.356-.167c-.5.038-.979.077-1.393.077a.333.333 0 0 1 0-.666c.388 0 .852-.036 1.341-.075a8.332 8.332 0 0 1 3.674.222 5.519 5.519 0 0 1 1.91 1.815c.2.26.387.5.568.706a.333.333 0 0 1-.246.555z" transform="translate(-613.187 -1207.292)" style="fill:#535e76"/>
        </g>
    </g>
</svg>
