<svg data-name="グループ 3162" xmlns="http://www.w3.org/2000/svg" width="133.469" height="134.118" viewBox="0 0 133.469 134.118">
    <defs>
        <clipPath id="56jtzxfiea">
            <path data-name="長方形 1878" style="fill:none" d="M0 0h133.469v134.118H0z"/>
        </clipPath>
    </defs>
    <g data-name="グループ 3161" style="clip-path:url(#56jtzxfiea)">
        <path data-name="パス 4068" d="M295.615 239.455c0-8.372 5.539-13.806 10.174-13.806 2.313 0 6.434-1.151 9.088.006s3.685 4.624 3.685 8.818c0 2.807.371 8.8-1.046 12a14.875 14.875 0 0 1-3.985 5.247c-2.01 1.556 1.424 13.82-.11 14.9-2.147 1.51-9.583 9.178-15.409 2.778-3.672-4.034-5.237-10.094-5.231-14.357.009-6.235 2.833-10.612 2.833-15.585" transform="translate(-269.419 -207.174)" style="fill-rule:evenodd;fill:#f5e3d8"/>
        <path data-name="パス 4069" d="M5.654 1013.015a8.306 8.306 0 0 1 2.69-1 23.778 23.778 0 0 1 4.818-.3 21.656 21.656 0 0 1 4.813.876c.554.219.542.724 1.326.627s3.356-.539 4.606-.746 5.765-1.266 7.64-1.782 5.54-1.157 7.605-1.978 3.815-1.322 4.894-1.737a34.716 34.716 0 0 0 3.993-1.874 19.978 19.978 0 0 1 5.4-2.1 9.966 9.966 0 0 1 3.847-.1 2.762 2.762 0 0 1 1.855 1.065 23.832 23.832 0 0 0 1.382 2.014 14.309 14.309 0 0 1 1.48 2.584c.383.767.9 1.478.419 1.6s-.481.4-.251.712.327.641-.126.811-.838-.131-1.133.138-.267.026-.435.989a14.4 14.4 0 0 1-.511 3.616 23.8 23.8 0 0 1-1.213 3.713c-.523.916-1.013 2.026-1.612 2.884s-1.084 1.845-1.813 2.2-1.166.988-1.312.389-.259-3.059-.372-4.484.081-3.189-.032-4.112-.162-1.569-.744-1.8a30.511 30.511 0 0 1-3.3-1.553 7.232 7.232 0 0 1-1.457-1.505c-.227-.178-.486-.129-.777.291a2.969 2.969 0 0 1-1.7 1.132 27.937 27.937 0 0 0-3.045 1.2c-.912.4-4.441 1.913-5.969 2.672s-7.253 3.714-8.841 4.486-6.067 2.886-7.232 3.366a39.493 39.493 0 0 1-4.76 1.595 41.821 41.821 0 0 1-4.405 1.129c-.923.069-3.178.122-3.476-.254a13.191 13.191 0 0 1-1.65-3.4 17.484 17.484 0 0 1-.791-4.075 35 35 0 0 1-.1-4.388c.082-1.057.288-2.9.288-2.9" transform="translate(-4.905 -922.738)" style="fill-rule:evenodd;fill:#f5e3d8"/>
        <path data-name="パス 4070" d="M1035.413 109.689c0-1.227.445-1.835 1.008-1.994.667-.189.583-5.812 1.354-7.391 1.619-3.32 6.964-4.382 9.763-4.382 1.675 0 4.513.238 5.968 2.545 2.265 3.591 3.034 9.876 5.125 10.192a1.546 1.546 0 0 1 1.314 1.684 5.816 5.816 0 0 1-1.182 2.854c-.664.894-1.674 1.583-1.839 2.291-.353 1.512 1.035 3.318 1.064 3.721.65 9.1-8.114 18.74-11.63 18.74-2.583 0-9.948-8.668-5.142-13.067.882-.808 1.112-2.572.594-2.967-1.745-1.329-4.188-5.449-4.657-8.462-.14-.9-.773-.911-1.162-1.509a5.234 5.234 0 0 1-.577-2.255" transform="translate(-952.792 -88.268)" style="fill-rule:evenodd;fill:#f5e3d8"/>
        <path data-name="パス 4071" d="M741.843 995.911s1.352-1.232 1.418-.506.05 1.525.1 1.854 3-.694 4.084-.948 3.864-.2 4.516 1.364a8.414 8.414 0 0 1 .908 5.108c-.41 1.834.734 3.194-.663 4.673a7.131 7.131 0 0 1-5.382 2.042 4.458 4.458 0 0 1-3-1.568 13.572 13.572 0 0 0-2.15-1.69 3.31 3.31 0 0 1-1.338-1.786c-.554-1.214-1.217-1.93-1.22-3.172a3.935 3.935 0 0 1 .676-2.812 32.435 32.435 0 0 1 2.052-2.56" transform="translate(-680.136 -915.766)" style="fill-rule:evenodd;fill:#f5e3d8"/>
        <path data-name="パス 4072" d="M984.292 852.631s-1.531-.376-3.048-.774-3.984-.915-4.959-1.174a7.775 7.775 0 0 1-2.381-.64 20.694 20.694 0 0 0-3.59-1.734 7.627 7.627 0 0 0-2.945-.487c-1.488.08-3.164.819-4.619-.662s-3.264-2.935-3.133-5.37a8.153 8.153 0 0 1 2.454-5.307c.946-.826 1.741-3.037 3.659-3.21a8.838 8.838 0 0 1 5.72.827 57.838 57.838 0 0 1 5.435 2.575 19.137 19.137 0 0 1 3.523 2.479c1.038 1.034 3.683 3.29 4.1 3.646a14.752 14.752 0 0 1 1.893 1.636 5.662 5.662 0 0 1 .588 1.935c0 .519-2.7 6.261-2.7 6.261" transform="translate(-883.037 -766.654)" style="fill-rule:evenodd;fill:#f5e3d8"/>
        <path data-name="パス 4073" d="M1036.041 23.872s.33-2.845.44-3.726a18.621 18.621 0 0 1 .844-3.249c.4-1.212 1.138-2.735 1.781-2.625a4.1 4.1 0 0 0 1.67.275c1.138-.037 3.983-1.156 5.415-1.285s2.423-.2 3.506.5 1.725-.128 2.295 1.56a29.434 29.434 0 0 1 .973 4.057c.275 1.3 1.193 2.258 1.633 3.3s.257 1.505 1.1 1.652 1.4.477 1.725.294.257-.312 1.064-2.019a7.938 7.938 0 0 0 1.01-3.946 15.767 15.767 0 0 0-.019-4.461 7.478 7.478 0 0 0-.9-2.68c-.863-1.946-.7-2.166-1.817-3.323a8.73 8.73 0 0 0-3.562-2.551 23.215 23.215 0 0 0-3.927-.991 23.908 23.908 0 0 0-4.406.239 12.92 12.92 0 0 0-3.4.808 11.785 11.785 0 0 0-3.286 1.45c-1.414 1.01-2.24.955-2.68 2.845a39.16 39.16 0 0 0-.881 4.7 9.434 9.434 0 0 0 .074 3.818 15.274 15.274 0 0 1 .734 2.46c.11.734.129 2.827.129 2.827z" transform="translate(-951.925 -4.253)" style="fill:#ffdeb6;fill-rule:evenodd"/>
        <path data-name="パス 4074" d="M292.9 183.233a.289.289 0 0 1-.337-.3c0-.34-.075-1.788-.074-2.505s.09-2.942.016-3.66-.077-1.348-.164-1.854a6.857 6.857 0 0 0-1.465-3.115 5.632 5.632 0 0 0-1.914-1.206c-.988-.464-.819-.5-1.772-.375a4.906 4.906 0 0 0-2.6 1.239 16.569 16.569 0 0 0-1.967 2.2 16.274 16.274 0 0 0-1.77 2.279 15.656 15.656 0 0 1-1.447 2.875 5.839 5.839 0 0 1-2.132 2.087c-.92.4-1.407.607-2.047.835s-1.257.672-1.73.472-.663-.51-1.245-.656-1.321-.186-1.593.335a3.714 3.714 0 0 0-.388 2c.071.747.613 2.366 1.231 2.718s1.15.112 1.363.539a4.723 4.723 0 0 1 .076 2.546 38.789 38.789 0 0 1-.454 4.2 5.05 5.05 0 0 1-1.371 3.014 21.337 21.337 0 0 1-3.623 2.959 20.854 20.854 0 0 1-2.677 1.445c-.466.256-.029-.21.279-1.206a23.751 23.751 0 0 0 .961-3.625c.03-.719.332-4.192.214-5.766s-.355-4.154-.325-6.425a36.157 36.157 0 0 1 .371-6.751 27.427 27.427 0 0 1 1.406-5.237 14.421 14.421 0 0 1 2.77-3.887c1.464-1.519 2.378-2.729 4.6-3.423s2.914-1.1 4.557-.8a22.8 22.8 0 0 0 2.954.506 7.022 7.022 0 0 1 3.713.974 8.93 8.93 0 0 1 3.392 2.423 16.821 16.821 0 0 1 2.934 4.182 12.139 12.139 0 0 1 1.529 7.78 11.59 11.59 0 0 1-1.265 3.175" transform="translate(-243.497 -150.998)" style="fill:#ffc8bb;fill-rule:evenodd"/>
        <path data-name="パス 4075" d="M519.784 551.175a6.776 6.776 0 0 0 1.978-.907c.644-.533 1.532-1.2 1.511-.776s.058 1.22.121 2.313a9.507 9.507 0 0 0 .822 3.589c.62 1.391 1.478 2.692 1.83 3.768a12.055 12.055 0 0 1 .8 3.331c.074 1.318.449 1.857-.067 3.574s-.341 2.111-.922 3.149a10.457 10.457 0 0 0-1.2 3.279c-.255 1.281-.323 2.991-1.209 1.765s-.823-.914-.857-2.289.1-3.76.1-4.587a17.342 17.342 0 0 0-.372-4.6c-.452-1.443-.7-2.088-1.1-3.474s-.861-2.656-1.114-3.557a7.76 7.76 0 0 1-.555-2.782c.09-.957.226-1.8.226-1.8" transform="translate(-478.088 -505.52)" style="fill:#ffc8bb;fill-rule:evenodd"/>
        <path data-name="パス 4076" d="M1121.276 350.8a24.638 24.638 0 0 0 2.916.359 14.332 14.332 0 0 0 3.063-.359s-1.257 2.134-2.873 2.134-3.191-1.728-3.105-2.134" transform="translate(-1031.801 -322.8)" style="fill:#fcd5cb;fill-rule:evenodd"/>
        <path data-name="パス 4077" d="M511.628 492.568s1.071.254 2.4.431c1.161.154 2.141.307 2.141.307a2.374 2.374 0 0 1-2.423 1.432c-1.6-.2-2.119-2.169-2.119-2.169" transform="translate(-470.803 -453.264)" style="fill:#fcd5cb;fill-rule:evenodd"/>
        <path data-name="パス 4078" d="M846.014 416.1c.159-.543.679-2 .319-2.673-.411-.768-1.9-1.245-2.865-2.131a15.369 15.369 0 0 1-2.556-2.244 16.069 16.069 0 0 0-3.132-3.151 26.373 26.373 0 0 0-4.939-2.086c-.6-.21-1.261-.514-1.882-.778-.944-.4-3.415.283-4.752.3-.265 0-.421 1 .591 1.348 1.465.5 3 .3 4.032.514.423.086 1.939.951 2.039 1.706.078.579-.65.476-1.986.268-.653-.1-3.911-.561-5.7-.792-.679-.087-3-.337-3.625-.025-.334.166-.388.246-.271.8.082.395.181.535 0 .916-.154.323-.072.9.894 1.479a46.665 46.665 0 0 0 7.389 2.8 21.325 21.325 0 0 1-3.237.475c-.424.064-2.847.109-3.158 1.2-.094.333 1.286.667 2.97.885a32.594 32.594 0 0 1 3.264.2c.769.307-6.266 3.074-6.658 3.119-1.985.226-12.026-17.315-11.638-26.67.07-1.674.742-5.375.743-5.486.017-2.337 1.69-5.357 3.382-7.073 2.736-2.774 6.356-3.772 9.335-5.166a20.293 20.293 0 0 0 3.463-1.98 10.089 10.089 0 0 0 2.505-2.772c.255-.444.535.077.855.642.563.994 1.767 1.836 2.941 3.494a4.882 4.882 0 0 1 .761 3.219c.033 2.478.818 4.578 1.037 4.5.3-.106.583-1.694 1.355-3.388a21.48 21.48 0 0 0 1.08-4.885c.156-.69.879-1.143 1.407-1.565 1.1-.877 3.439-2.023 4.84-3.318.8-.741 2.573-1.879 3.187-2.932.182-.312-.718-1.808-.48-2.019.268-.239 1.168.209 1.893.442.751.241 1 .977 1.573 2.125.4.807.853 1.3.66 2.036-.11.417.042.564.668.772 2.048.68 5.79 1.662 8.915 2.6a20.2 20.2 0 0 1 6.626 3.534 33.1 33.1 0 0 1 4.457 6.5 17.25 17.25 0 0 1 1.41 5.084c.415 2.822.667 6.682 1.108 9.557.549 3.584.641 6.119 1 11.282.094 1.34-.028 3.174.043 4.825.144 3.366.632 5.582-.124 8.289a5.345 5.345 0 0 1-2.885 4.04 31.442 31.442 0 0 1-5.582 1.69c-.233.044-.073.851.337 2.958.66 3.394 3.608 13.7 4.214 16.861.637 3.326-22.547 12.846-29.826 12.846-4.78 0-19.262-1.723-21.533-8.944-.037-.115.088-6.657.011-10.932-.044-2.453.16-10.962.033-13.231-.023-.415-.076-.715-2.265 2.367a6.418 6.418 0 0 1-4.754 2.621 8.173 8.173 0 0 1-5.925-3.172c-.4-.492 1.36.629 3.434.589a4.574 4.574 0 0 0 2.813-2.021c2.729-6.276 16.774-8.754 18.8-8.715a9.215 9.215 0 0 1 2.163.61c2.78.766 8.932 2.249 9.078 2.277.62.12 1.833-2.543 2.15-3.638" transform="translate(-743.078 -333.824)" style="fill:#f4f3f3;fill-rule:evenodd"/>
        <path data-name="パス 4079" d="M31.953 614.167s1.72 2.269 2.771 3.607a34.634 34.634 0 0 0 4.682 5.016c1.337.979 3.248 2.58 4.347 2.77s3.249.693 4.443.048 2.938-1.577 3.344-2.436.478-.716.788.215a12.878 12.878 0 0 1 .43 3.726c-.024 1.218-.335 2.532-.263 3.774s-.072 1.338.454 2.079 1.409 1.433 1.433.478a13.151 13.151 0 0 1 .215-2.2 15 15 0 0 1 .955-2.031 16.837 16.837 0 0 0 1.075-3.367c.12-1.028.263-2.365.287-3.344s-.144-1.553.549-.86 1.839 1.337 2.795 2.2 2.665 2.152 3.041 3.2a8.153 8.153 0 0 1 .419 3.205c-.021 1.319-.251 4.42-.272 5.363s.063 2.367.1 4.126.042 5.363 0 6.138-.146 2.2-.146 2.2a7.437 7.437 0 0 1-.88-1.194 2.8 2.8 0 0 0-1.739-1.529 8.847 8.847 0 0 0-3.531-.09 28.772 28.772 0 0 0-5.678 2.1 36.2 36.2 0 0 1-4.109 2.027c-1.21.415-4.864 1.7-7.449 2.42s-6.961 1.854-8.623 2.25-5.792 1.183-6.267 1.193-.152-.186-.209-.852a20.116 20.116 0 0 0-.289-3.378 9.282 9.282 0 0 0-.975-2.977c-.349-.516-.515-.295-.624.5s-.571 2.464-.791 3.842-.35 2.353-.386 2.776-.037.183-.92-.092a13.42 13.42 0 0 0-3.994-.882 27.064 27.064 0 0 0-5.109.142 9.048 9.048 0 0 0-2.7.89c-.38.251-.485.158-.318-.9s.3-2.667.7-4.509 1.108-4.908 1.353-6 1.171-6.124 1.434-7.44a45.27 45.27 0 0 0 .7-4.474 35.169 35.169 0 0 1 .9-4.908 17.136 17.136 0 0 1 1.626-4.011 7.261 7.261 0 0 1 2.981-3.085 13.738 13.738 0 0 1 3.54-1.472 31.956 31.956 0 0 0 4.128-1.306c1.228-.52 2-.9 3.322-1.56s2.467-1.376 2.467-1.376" transform="translate(-8.038 -565.16)" style="fill:#fff;fill-rule:evenodd"/>
        <path data-name="パス 4080" d="M136.055 1131a46.732 46.732 0 0 0 4.684-1.9c1.674-.86 4.466-2.269 6.4-3.157s5.419-2.764 7.043-3.558 5.459-2.519 6.289-2.821a9.137 9.137 0 0 0 2.626-1.05c.631-.537 1.043-1.309 1.225-1.108s.941 1.388 1.41 1.622a20 20 0 0 0 2.365 1.149c.747.24 1.688.507 1.73.931s-.086 7.188.355 9.268 1.636 6.7 2.356 8.8 2.335 6.265 2.5 7.185 1.265 1.362-1.636 2.624-9.2 4.508-13.511 5.044a79.952 79.952 0 0 1-15.294.224c-3.238-.455-8.608-2.094-9.922-2.964s-3-2.546-2.9-3.67 1.133-4.929 1.434-6.061 1.289-4.184 1.627-5.65.615-2.755.805-3.62a5.583 5.583 0 0 1 .416-1.291" transform="translate(-121.254 -1028.211)" style="fill:#fff;fill-rule:evenodd"/>
        <path data-name="パス 4081" d="M759.506 736.051s.042-3.147-.085-4.912-.649-6.224-.9-8.13-.79-5.391-1.086-6.676-.664-3.43-.749-3.994.226-.607.706-.522.945 0 1.313.07.226.056.113-.536a6.166 6.166 0 0 1-.155-1.3c.014-.282.409-.254.734-.126a26.084 26.084 0 0 0 3.246.635c.62.043 2.921.24 4.064.24s3.134.1 3.783.085a17.58 17.58 0 0 0 3.106-.212 50.051 50.051 0 0 1 6.317-.414c1.119.04 4.555.351 5.157.447s.636.2.7.673.194 11.567.194 11.567-1.293-.431-1.6-.531a17.018 17.018 0 0 0-2.532.133 11.8 11.8 0 0 0-2.179.221c-.332.144-.631.243-.365.553a4.311 4.311 0 0 0 1.592.929c.376.066 1.693.1 2.19.177a10.23 10.23 0 0 1 2.312.586 1.541 1.541 0 0 1 .62 1.062c0 .3.211.9-.5.756s-6.545-1.018-7.937-1.1-2.789-.117-2.92.224.284.885.134 1.089-.554.4-.339.751a4 4 0 0 0 2.029 1.742c1.264.494 4.6 1.547 5.488 1.932s.836.5.129.487a16.213 16.213 0 0 0-3.278.292 7.4 7.4 0 0 0-1.945.6c-.19.2-.443.469.018.7a6.506 6.506 0 0 0 2.348.747 17.023 17.023 0 0 1 3.076.079 22.105 22.105 0 0 1 3.046 1.184c.883.358 1.206.432 1.28 1.017s.588 6.89.588 6.89a1.76 1.76 0 0 1-.916.171c-.435-.071-1.168-.142-1.216.2s-.145 1.245-.475 1.276-2.227-.273-3.867-.526-5.622-.754-6.413-.835-3.876.108-5.061.145-5.943.4-5.943.4 1.1-.966 1.7-1.417 1.482-1.017 1.882-1.41a3.963 3.963 0 0 0 1.032-1.865c-.037-.4-.323-.786-.172-1.075a1.31 1.31 0 0 0 .216-.9.994.994 0 0 1-.091-.728.864.864 0 0 0-.551-.975 14.81 14.81 0 0 0-2.077-.172c-.306.012.43-.606.453-.985s-.263-.824-1.234-.635a20.953 20.953 0 0 0-3.292 1.322 15.923 15.923 0 0 1-1.676.6" transform="translate(-696.291 -653.193)" style="fill:#fff;fill-rule:evenodd"/>
        <path data-name="パス 4082" d="M1061.567 289.858a6.934 6.934 0 0 1-.9-.058 8.945 8.945 0 0 1-5.6-3.735 12.816 12.816 0 0 1-2.68-9.275.4.4 0 0 1 .793.113 12.175 12.175 0 0 0 2.525 8.678 8.162 8.162 0 0 0 5.067 3.426c2.829.367 5.972-1.256 8.2-4.241a.4.4 0 1 1 .641.478c-2.169 2.908-5.178 4.614-8.04 4.614" transform="translate(-968.317 -254.387)" style="fill:#535e76"/>
        <path data-name="パス 4083" d="M1033.266 246.35a.4.4 0 0 1-.226-.07 4.261 4.261 0 0 1-1.553-3.826 2.057 2.057 0 0 1 .592-1.546 1.236 1.236 0 0 1 1-.253.4.4 0 0 1-.11.793.448.448 0 0 0-.376.077 1.406 1.406 0 0 0-.3.969 3.486 3.486 0 0 0 1.206 3.126.4.4 0 0 1-.226.73" transform="translate(-949.172 -221.438)" style="fill:#535e76"/>
        <path data-name="パス 4084" d="M1301.449 256.586a1.127 1.127 0 0 1-.15-.01.4.4 0 0 1 .109-.793 1.92 1.92 0 0 0 1.207-.7c.778-.917 1.485-2.3 1.139-3.418a.935.935 0 0 0-.711-.662.655.655 0 0 0-.661.326.4.4 0 0 1-.661-.452 1.451 1.451 0 0 1 1.442-.666 1.725 1.725 0 0 1 1.355 1.217c.556 1.8-.849 3.648-1.293 4.172a2.764 2.764 0 0 1-1.776.99" transform="translate(-1197.144 -230.226)" style="fill:#535e76"/>
        <path data-name="パス 4085" d="m1301.127 283.1-.615-.513c.233-.279.668-.8 1.195-.726a.4.4 0 0 1-.11.793c-.044.01-.177.1-.47.447m-.314-.249z" transform="translate(-1196.739 -259.361)" style="fill:#535e76"/>
        <path data-name="パス 4086" d="M1099.1 250.943c.026-.187.132-.326.239-.311s.171.178.146.364-.133.326-.239.311-.171-.178-.146-.364" transform="translate(-1011.395 -230.632)" style="fill:#fff;fill-rule:evenodd"/>
        <path data-name="パス 4087" d="M1094.648 247.09a.478.478 0 0 1-.071-.005.536.536 0 0 1-.353-.211.89.89 0 0 1 .159-1.149.525.525 0 0 1 .749.1.887.887 0 0 1-.158 1.148.54.54 0 0 1-.327.113m.235-.663z" transform="translate(-1006.779 -226.013)" style="fill:#535e76"/>
        <path data-name="パス 4088" d="M1215.8 255.286c.026-.187.133-.326.239-.311s.172.178.146.364-.133.326-.239.312-.172-.178-.146-.364" transform="translate(-1118.778 -234.628)" style="fill:#fff;fill-rule:evenodd"/>
        <path data-name="パス 4089" d="M1211.343 251.44a.473.473 0 0 1-.071-.005.534.534 0 0 1-.353-.212.814.814 0 0 1-.134-.6.609.609 0 1 1 1.178.163.817.817 0 0 1-.293.545.543.543 0 0 1-.326.113m.234-.664z" transform="translate(-1114.161 -230.017)" style="fill:#535e76"/>
        <path data-name="パス 4090" d="M1193.946 197.374a.4.4 0 0 1-.148-.772 4.415 4.415 0 0 1 3.552.021.4.4 0 1 1-.391.7 3.642 3.642 0 0 0-2.866.025.4.4 0 0 1-.148.028" transform="translate(-1098.307 -180.577)" style="fill:#535e76"/>
        <path data-name="パス 4091" d="M1083.216 192.69a.4.4 0 0 1-.2-.051 3.931 3.931 0 0 0-2.968-.2.4.4 0 1 1-.275-.751 4.728 4.728 0 0 1 3.634.252.4.4 0 0 1-.2.749" transform="translate(-993.375 -176.165)" style="fill:#535e76"/>
        <path data-name="パス 4092" d="M1138.449 254.562a.4.4 0 0 1-.3-.131l-.075-.082a2.079 2.079 0 0 1-.6-.962 1.608 1.608 0 0 1 .458-1.212 3.56 3.56 0 0 0 .562-1.644.4.4 0 1 1 .782-.172 4.023 4.023 0 0 1-.693 2.283c-.125.161-.349.453-.322.593a1.54 1.54 0 0 0 .4.57l.08.088a.4.4 0 0 1-.3.67" transform="translate(-1046.699 -230.092)" style="fill:#535e76"/>
        <path data-name="パス 4093" d="M1330.553 136.446a.4.4 0 0 1-.354-.586c1.273-2.43 1.111-5.241.955-7.959l.4-.1.4-.023-.4.023.4.051c.162 2.827.33 5.751-1.047 8.377a.4.4 0 0 1-.354.215" transform="translate(-1224.013 -117.585)" style="fill:#535e76"/>
        <path data-name="パス 4094" d="M1285.032 228.546a.4.4 0 0 1-.256-.093 3.364 3.364 0 0 1-1.089-1.851.4.4 0 0 1 .774-.2 2.548 2.548 0 0 0 .828 1.44.4.4 0 0 1-.257.708" transform="translate(-1181.244 -208.059)" style="fill:#535e76"/>
        <path data-name="パス 4095" d="M1299.761 340.516a.4.4 0 0 1-.355-.216 11.2 11.2 0 0 1-1.163-3.679.4.4 0 0 1 .791-.125 10.258 10.258 0 0 0 1.082 3.435.4.4 0 0 1-.355.585" transform="translate(-1194.645 -309.334)" style="fill:#535e76"/>
        <path data-name="パス 4096" d="M1106.789 426.4a.4.4 0 0 1-.253-.71c.568-.465.52-1.036.384-2.006l.789-.134-.4.056.4-.032c.135.966.275 1.964-.67 2.737a.4.4 0 0 1-.253.09" transform="translate(-1018.105 -389.752)" style="fill:#535e76"/>
        <path data-name="パス 4097" d="M847.823 481.634a.4.4 0 0 1-.068-.006.4.4 0 0 1-.328-.462c.119-.7.225-1.451.335-2.223.376-2.657.8-5.669 1.928-7.612 2.028-3.5 5.621-5.079 9.1-6.6a24.643 24.643 0 0 0 6.862-3.926.4.4 0 1 1 .541.59 25.224 25.224 0 0 1-7.082 4.069c-3.511 1.543-6.827 3-8.724 6.273-1.048 1.809-1.462 4.738-1.828 7.323-.11.781-.218 1.539-.338 2.246a.4.4 0 0 1-.394.333" transform="translate(-779.802 -423.933)" style="fill:#535e76"/>
        <path data-name="パス 4098" d="M1162.727 387.141a.4.4 0 0 1-.1-.012.4.4 0 0 1-.292-.485 18.946 18.946 0 0 1 1-2.762 17.766 17.766 0 0 0 .942-2.6 6.7 6.7 0 0 0 .149-1.289 4.079 4.079 0 0 1 .764-2.611 10.9 10.9 0 0 1 2.81-2.147c.431-.261.854-.518 1.239-.788a20.957 20.957 0 0 0 5.947-5.436.4.4 0 1 1 .666.444 21.883 21.883 0 0 1-6.153 5.648c-.4.279-.837.546-1.283.816a10.367 10.367 0 0 0-2.612 1.975 3.419 3.419 0 0 0-.58 2.14 7.5 7.5 0 0 1-.17 1.442 18.75 18.75 0 0 1-.981 2.712 18.285 18.285 0 0 0-.958 2.645.4.4 0 0 1-.388.3" transform="translate(-1069.579 -339.407)" style="fill:#535e76"/>
        <path data-name="パス 4099" d="M1101.673 445.57a.4.4 0 0 1-.388-.3 10.884 10.884 0 0 1-.226-2.523 8.367 8.367 0 0 0-.316-2.7 6.715 6.715 0 0 0-1.772-2.419 7.352 7.352 0 0 1-2.018-2.854.4.4 0 0 1 .76-.253 6.625 6.625 0 0 0 1.827 2.544 7.42 7.42 0 0 1 1.956 2.713 9.051 9.051 0 0 1 .364 2.964 10.118 10.118 0 0 0 .2 2.337.4.4 0 0 1-.292.485.392.392 0 0 1-.1.012" transform="translate(-1009.403 -399.59)" style="fill:#535e76"/>
        <path data-name="パス 4100" d="M1074.971 437.108a.4.4 0 0 1-.279-.687 7.143 7.143 0 0 0 .725-.941c.5-.724.866-1.247 1.338-1.247a.4.4 0 0 1 .042.8 4.719 4.719 0 0 0-.722.906 7.692 7.692 0 0 1-.825 1.059.4.4 0 0 1-.279.113" transform="translate(-988.825 -399.583)" style="fill:#535e76"/>
        <path data-name="パス 4101" d="M1058.846 483.783a.4.4 0 0 1-.182-.052c-.253-.126-.253-.126-.188-1.311l.013-.251a7.226 7.226 0 0 0-.314-1.86l-.089-.349c-.054-.217-.116-.426-.177-.633a6.436 6.436 0 0 1-.344-1.865.4.4 0 1 1 .8 0 5.714 5.714 0 0 0 .312 1.639c.063.217.128.437.185.664l.088.343a7.977 7.977 0 0 1 .339 2.064c0 .023-.006.138-.014.29 0 .055-.006.116-.01.179.192-.134.385-.273.5-.353s.208-.148.244-.173a7.665 7.665 0 0 0 1.144-1.108c1.06-1.157 2.377-2.6 3.781-1.664a.4.4 0 0 1-.444.666c-.772-.515-1.625.313-2.748 1.538a8.089 8.089 0 0 1-1.289 1.233c-.033.022-.114.081-.222.158-.9.644-1.182.842-1.382.842" transform="translate(-973.177 -438.995)" style="fill:#535e76"/>
        <path data-name="パス 4102" d="M1201.725 427.434a5.059 5.059 0 0 1-1.82-.7 8.8 8.8 0 0 1-2.934-2.685 16.522 16.522 0 0 0-1.224-1.426 1.188 1.188 0 0 0-.731-.38.162.162 0 0 0-.131.088.4.4 0 1 1-.666-.444.956.956 0 0 1 .718-.441 1.968 1.968 0 0 1 1.376.611 17.244 17.244 0 0 1 1.285 1.494 8.028 8.028 0 0 0 2.629 2.449 11.184 11.184 0 0 0 1.206.551 18.434 18.434 0 0 0-.056-.673 3.155 3.155 0 0 1-.019-.292 6.742 6.742 0 0 1 .78-2.269 14.532 14.532 0 0 1 2.193-2.955c1.2-1.367 2.343-2.66 2.619-4.321a.4.4 0 0 1 .79.131c-.314 1.888-1.582 3.327-2.808 4.719a13.713 13.713 0 0 0-2.077 2.784 6.207 6.207 0 0 0-.7 1.98 1.239 1.239 0 0 1 .017.147c.105 1.073.091 1.31-.088 1.488a.47.47 0 0 1-.361.146" transform="translate(-1098.865 -382.534)" style="fill:#535e76"/>
        <path data-name="パス 4103" d="M1315.737 364.39a.4.4 0 0 1-.333-.178 11.083 11.083 0 0 1-.664-1.242 5.718 5.718 0 0 0-1.3-2.018 3.684 3.684 0 0 0-.963-.408 8.297 8.297 0 0 1-.58-.2.4.4 0 0 1 .3-.743c.174.07.35.125.525.181a4.365 4.365 0 0 1 1.165.5 5.965 5.965 0 0 1 1.58 2.335 10.711 10.711 0 0 0 .609 1.148.4.4 0 0 1-.333.622" transform="translate(-1206.98 -330.879)" style="fill:#535e76"/>
        <path data-name="パス 4104" d="M1375.211 433.641a.4.4 0 0 1-.315-.153 16.1 16.1 0 0 0-3.786-3.783 31.376 31.376 0 0 0-8.695-3.265 49.891 49.891 0 0 1-5.82-1.805.4.4 0 0 1 .3-.743 49.248 49.248 0 0 0 5.727 1.774 31.982 31.982 0 0 1 8.911 3.358 16.759 16.759 0 0 1 3.993 3.97.4.4 0 0 1-.315.647" transform="translate(-1248.115 -390.041)" style="fill:#535e76"/>
        <path data-name="パス 4105" d="M1618.82 628.143a.4.4 0 0 1-.376-.537c.784-2.155.6-4.55.42-6.867-.076-1-.155-2.024-.155-3.015a161.983 161.983 0 0 0-1.635-19.6c-.087-.7-.156-1.426-.227-2.174-.245-2.6-.5-5.295-1.565-7.427a.4.4 0 0 1 .716-.358c1.133 2.266 1.405 5.158 1.646 7.71.07.74.137 1.462.223 2.15a162.577 162.577 0 0 1 1.641 19.7c0 .96.074 1.929.153 2.954.185 2.4.377 4.885-.467 7.2a.4.4 0 0 1-.376.263" transform="translate(-1486.353 -541.024)" style="fill:#535e76"/>
        <path data-name="パス 4106" d="M1451.607 673.249a.4.4 0 0 1-.4-.4 131.847 131.847 0 0 0-.768-14.7 41.737 41.737 0 0 0-.178-1.326c-.321-2.243-.763-5.316.122-7.086a.4.4 0 0 1 .716.358c-.773 1.546-.353 4.475-.045 6.614.072.5.137.961.181 1.351a132.785 132.785 0 0 1 .773 14.785.4.4 0 0 1-.4.4" transform="translate(-1334.169 -597.691)" style="fill:#535e76"/>
        <path data-name="パス 4107" d="M1249.409 976.347a.4.4 0 0 1-.213-.74c2.024-1.268 2.973-4.464 3.17-6.815.012-.139.016-.292.02-.453a3.027 3.027 0 0 1 .556-2.035c.32-.348.837-.129 1.252.045a1.813 1.813 0 0 0 .209.083l.363.084c1.2.276 2.443.561 3.646.883a23.917 23.917 0 0 0 8.21.224 24.291 24.291 0 0 1 8.595.276.4.4 0 1 1-.213.771 23.652 23.652 0 0 0-8.313-.249 24.532 24.532 0 0 1-8.485-.249c-1.19-.318-2.424-.6-3.618-.876l-.365-.083a2.527 2.527 0 0 1-.339-.125 3.453 3.453 0 0 0-.422-.156 2.785 2.785 0 0 0-.276 1.43c0 .176-.009.345-.023.5-.212 2.535-1.268 6-3.542 7.427a.4.4 0 0 1-.212.061" transform="translate(-1149.344 -889.028)" style="fill:#535e76"/>
        <path data-name="パス 4108" d="M1286.556 1115.5a59.925 59.925 0 0 1-9.721-1.082 225.97 225.97 0 0 0-2.016-.331c-.968-.153-1.985-.253-2.968-.35a28.263 28.263 0 0 1-5.638-.944.4.4 0 0 1 .238-.764 27.646 27.646 0 0 0 5.479.912c.994.1 2.022.2 3.014.357.658.1 1.334.217 2.023.332 5.8.97 12.375 2.069 17.485-.611a.4.4 0 0 1 .372.709 17.58 17.58 0 0 1-8.268 1.773" transform="translate(-1164.917 -1023.278)" style="fill:#535e76"/>
        <path data-name="パス 4109" d="M1055.932 872.6a.4.4 0 0 1-.207-.057l-.225-.136a17.643 17.643 0 0 1-3.757-2.731c-.381-.4-.756-.832-1.136-1.275a14.9 14.9 0 0 0-2.329-2.347 15.892 15.892 0 0 0-4.021-1.869l-.742-.268c-.22-.081-.467-.191-.727-.309a5.59 5.59 0 0 0-1.751-.557c-.8.014-1.612.1-2.4.186-.657.07-1.337.143-2.013.175a.4.4 0 0 1-.038-.8c.652-.031 1.321-.1 1.966-.171.807-.086 1.642-.175 2.472-.19a5.511 5.511 0 0 1 2.094.627c.241.109.471.212.675.287l.736.266a16.485 16.485 0 0 1 4.224 1.976 15.486 15.486 0 0 1 2.463 2.472c.37.431.734.856 1.105 1.24a17.028 17.028 0 0 0 3.591 2.6l.227.136a.4.4 0 0 1-.206.743" transform="translate(-953.522 -793.449)" style="fill:#535e76"/>
        <path data-name="パス 4110" d="M1041.867 878.153a.4.4 0 0 1-.347-.2 4.592 4.592 0 0 0-2.75-2.2 8.508 8.508 0 0 0-1.807-.249c-1.276-.09-2.721-.191-3.625-1.247a.4.4 0 0 1 .608-.521c.686.8 1.845.883 3.073.969a9.127 9.127 0 0 1 1.984.283 5.357 5.357 0 0 1 3.212 2.561.4.4 0 0 1-.347.6" transform="translate(-950.795 -803.892)" style="fill:#535e76"/>
        <path data-name="パス 4111" d="M999.867 904.278a.434.434 0 0 1-.082-.008 97.577 97.577 0 0 0-11.5-1.589.4.4 0 0 1-.368-.43.405.405 0 0 1 .43-.368 98.4 98.4 0 0 1 11.6 1.6.4.4 0 0 1-.081.792" transform="translate(-909.084 -829.917)" style="fill:#535e76"/>
        <path data-name="パス 4112" d="M986 909.593a.4.4 0 0 1-.109-.015c-2.336-.658-5.513-1.323-8.306-1.9-.637-.13-2.145-.522-2.382-1.343a.925.925 0 0 1 .323-.96.4.4 0 0 1 .555.577c-.084.081-.114.142-.11.16.054.186.7.562 1.775.781 2.807.574 6 1.243 8.363 1.908a.4.4 0 0 1-.109.786" transform="translate(-897.356 -833.033)" style="fill:#535e76"/>
        <path data-name="パス 4113" d="M984.192 931.077a.408.408 0 0 1-.147-.028c-.805-.318-1.814-.648-2.883-1-2.921-.956-5.941-1.944-6.552-3.212a1.148 1.148 0 0 1-.05-.915.4.4 0 1 1 .75.279.344.344 0 0 0 .021.289c.463.961 3.578 1.98 6.08 2.8 1.08.353 2.1.687 2.928 1.013a.4.4 0 0 1-.147.773" transform="translate(-896.728 -851.801)" style="fill:#535e76"/>
        <path data-name="パス 4114" d="M1005.96 984.994a.4.4 0 0 1-.088-.791 19.921 19.921 0 0 1 6.183-.578c.088.009.214.007.359.007a2.652 2.652 0 0 1 1.334.2.4.4 0 0 1-.43.675 3.176 3.176 0 0 0-.9-.078c-.182 0-.332 0-.439-.011a19.089 19.089 0 0 0-5.929.562.4.4 0 0 1-.088.01" transform="translate(-925.321 -905.085)" style="fill:#535e76"/>
        <path data-name="パス 4115" d="M1022.24 1008.306a.409.409 0 0 1-.072-.006c-1.883-.341-6.717-1.589-8.536-2.06l-.383-.1a13.135 13.135 0 0 1-2.357-1.028 11.936 11.936 0 0 0-3.424-1.343c-.465-.057-1.025-.077-1.618-.1-1.553-.054-3.313-.115-4.31-.9a.4.4 0 0 1 .5-.627c.79.626 2.41.682 3.841.732.61.021 1.188.041 1.688.1a12.418 12.418 0 0 1 3.688 1.423 12.7 12.7 0 0 0 2.195.966l.383.1c1.812.468 6.625 1.711 8.478 2.047a.4.4 0 0 1-.07.794" transform="translate(-921.482 -922.096)" style="fill:#535e76"/>
        <path data-name="パス 4116" d="M757.984 1013.239a2.313 2.313 0 0 1-1.924-.678.4.4 0 1 1 .627-.5c.312.393.979.38 1.576.372h.193a6.715 6.715 0 0 0 2.595-.884c1.309-.636 2.664-1.293 3.944-.812a.4.4 0 0 1-.281.75c-.96-.36-2.1.2-3.313.782a7.34 7.34 0 0 1-2.938.965h-.478" transform="translate(-695.65 -929.933)" style="fill:#535e76"/>
        <path data-name="パス 4117" d="M783.88 1019.54a.4.4 0 0 1-.166-.765c.416-.188.9-.376 1.408-.576 1.9-.742 4.268-1.666 4.909-3.373a.4.4 0 1 1 .749.281c-.767 2.041-3.317 3.037-5.368 3.837-.5.194-.964.376-1.367.559a.4.4 0 0 1-.166.036" transform="translate(-720.962 -933.61)" style="fill:#535e76"/>
        <path data-name="パス 4118" d="M743.357 1062.269a.4.4 0 0 1-.246-.084l-.3-.228a5.957 5.957 0 0 1-.854-.715.4.4 0 0 1 .586-.545 5.414 5.414 0 0 0 .742.615c.109.081.217.16.321.241a.4.4 0 0 1-.246.716" transform="translate(-682.651 -975.941)" style="fill:#535e76"/>
        <path data-name="パス 4119" d="M755.889 1037.627a.588.588 0 0 1-.126-.013 2.373 2.373 0 0 1-1.022-.6 2.07 2.07 0 0 0-.556-.385.4.4 0 0 1 .281-.749 2.72 2.72 0 0 1 .794.526 1.691 1.691 0 0 0 .675.426 9.225 9.225 0 0 0 .983-.48c.2-.106.368-.194.459-.231a20.363 20.363 0 0 0 4.166-2.5c.278-.2.557-.4.838-.593.1-.072.294-.182.53-.317 1.672-.957 2.023-1.365 2.024-1.538 0-.007-.036-.222-1.128-.344l-.007-.4.045-.4c.573.064 1.8.2 1.885 1.063.084.809-1.1 1.557-2.422 2.315-.209.12-.378.216-.47.28-.279.194-.556.391-.832.588a21.241 21.241 0 0 1-4.332 2.59c-.076.03-.215.106-.382.194a3.728 3.728 0 0 1-1.405.568" transform="translate(-693.766 -947.838)" style="fill:#535e76"/>
        <path data-name="パス 4120" d="M790.7 1057.238a.4.4 0 0 1-.018-.8c2.111-.1 4.3-2.083 5.905-3.534l.391-.354c.083-.074.2-.169.345-.278.371-.289 1.358-1.055 1.124-1.381a.4.4 0 1 1 .649-.467c.686.953-.594 1.946-1.282 2.481-.123.1-.229.177-.3.241l-.388.351c-1.691 1.533-4.007 3.632-6.406 3.741h-.02" transform="translate(-727.24 -966.452)" style="fill:#535e76"/>
        <path data-name="パス 4121" d="M824 1074.031a.4.4 0 0 1-.215-.738 26.785 26.785 0 0 0 2.225-1.647q.369-.293.74-.584c.187-.145.386-.289.587-.435 1.4-1.017 2.214-1.718 1.687-2.879a.4.4 0 0 1 .729-.331c.835 1.84-.706 2.958-1.945 3.857-.195.141-.387.281-.567.421-.246.19-.489.384-.733.577a27.277 27.277 0 0 1-2.293 1.7.4.4 0 0 1-.215.063" transform="translate(-757.88 -982.027)" style="fill:#535e76"/>
        <path data-name="パス 4122" d="M763.659 1126.8a.4.4 0 0 1-.181-.043 16.916 16.916 0 0 1-2.548-1.719.4.4 0 0 1 .489-.634 16.011 16.011 0 0 0 2.422 1.64.4.4 0 0 1-.181.757" transform="translate(-700.068 -1034.609)" style="fill:#535e76"/>
        <path data-name="パス 4123" d="M735.715 1011.018a.4.4 0 0 1-.364-.235l-.3-.641c-.206-.432-.419-.88-.6-1.336-1.18-3.039.2-4.606 1.948-6.589l.321-.365a.4.4 0 1 1 .6.527l-.322.367c-1.691 1.918-2.807 3.186-1.8 5.771.168.434.371.859.572 1.282.1.218.208.436.306.654a.4.4 0 0 1-.364.566" transform="translate(-675.445 -921.782)" style="fill:#535e76"/>
        <path data-name="パス 4124" d="M803.461 1144.167a7.249 7.249 0 0 1-3.214-.812 9.939 9.939 0 0 1-2.634-2.14c-.258-.265-.517-.53-.783-.782a.4.4 0 1 1 .55-.582c.274.26.54.532.806.8a9.221 9.221 0 0 0 2.415 1.982c4.8 2.371 7.65-1.53 8.919-4.066a.4.4 0 0 1 .716.358c-1.722 3.44-4.1 5.238-6.775 5.238" transform="translate(-733.132 -1047.517)" style="fill:#535e76"/>
        <path data-name="パス 4125" d="M804.561 1140.9a5.624 5.624 0 0 1-3.146-1.048.4.4 0 1 1 .45-.661 4.479 4.479 0 0 0 3.508.818 3.726 3.726 0 0 0 2.391-1.893 1.622 1.622 0 0 0 .156-.377.4.4 0 1 1 .771.215 2.451 2.451 0 0 1-.231.56 4.505 4.505 0 0 1-2.906 2.275 4.4 4.4 0 0 1-.992.112" transform="translate(-737.305 -1046.681)" style="fill:#535e76"/>
        <path data-name="パス 4126" d="M904.545 681.188h-.01a.4.4 0 0 1-.39-.41 10.671 10.671 0 0 0-.335-2.653l-.15-.728a.4.4 0 1 1 .785-.156l.149.719a11.425 11.425 0 0 1 .352 2.838.4.4 0 0 1-.4.39" transform="translate(-831.545 -622.904)" style="fill:#535e76"/>
        <path data-name="パス 4127" d="M964.988 1156.856a.4.4 0 0 1-.4-.4c0-4.511.04-9.106.078-13.55.032-3.621.063-7.239.074-10.846a.4.4 0 0 1 .4-.4.4.4 0 0 1 .4.4c-.011 3.609-.042 7.229-.074 10.851-.038 4.442-.078 9.035-.078 13.543a.4.4 0 0 1-.4.4" transform="translate(-887.619 -1041.36)" style="fill:#535e76"/>
        <path data-name="パス 4128" d="M1556.479 1178.221a.4.4 0 0 1-.387-.3l-.462-1.758c-1.125-4.271-3.219-12.223-3.693-15.306a.4.4 0 1 1 .791-.122c.468 3.042 2.555 10.967 3.676 15.224l.462 1.76a.4.4 0 0 1-.286.488.42.42 0 0 1-.1.013" transform="translate(-1428.095 -1067.803)" style="fill:#535e76"/>
        <path data-name="パス 4129" d="M988.055 1407.246a26.006 26.006 0 0 1-4.517-.373c-4.049-.715-8.523-1.948-11.008-5.676a.4.4 0 1 1 .666-.444c2.318 3.476 6.6 4.646 10.481 5.331 9.573 1.687 21.6-2.9 30.375-6.251 4-1.529 7.167-2.736 9.146-2.983a.4.4 0 1 1 .1.794c-1.884.236-5.163 1.488-8.961 2.937-7.543 2.879-17.461 6.664-26.283 6.664" transform="translate(-894.866 -1285.386)" style="fill:#535e76"/>
        <path data-name="パス 4130" d="M1101.6 76.451a.4.4 0 0 1-.256-.093 6.28 6.28 0 0 0-3.722-.965 31.45 31.45 0 0 1-.919-.062c-1.883-.166-4.6-.639-6.473-2.821a.4.4 0 0 1 .608-.521c1.3 1.512 3.126 2.3 5.935 2.545.29.025.589.043.895.06a6.961 6.961 0 0 1 4.189 1.149.4.4 0 0 1-.257.708" transform="translate(-1003.147 -66.117)" style="fill:#535e76"/>
        <path data-name="パス 4131" d="M1073.469 100.158a.418.418 0 0 1-.087-.009c-1.433-.318-2.973-.871-3.534-2.556a.4.4 0 1 1 .76-.253c.434 1.3 1.674 1.744 2.948 2.027a.4.4 0 0 1-.087.791" transform="translate(-984.461 -89.322)" style="fill:#535e76"/>
        <path data-name="パス 4132" d="M1137.757 8.658a.4.4 0 0 1-.371-.252 34.473 34.473 0 0 1-.379-1.009 12.149 12.149 0 0 0-1.1-2.446c-1.594-2.5-5.04-3.874-7.747-4.12a15.58 15.58 0 0 0-2.99.132 11.1 11.1 0 0 1-4.646-.151.4.4 0 1 1 .253-.759 10.574 10.574 0 0 0 4.309.114 16.4 16.4 0 0 1 3.146-.133c2.9.264 6.609 1.754 8.35 4.487a12.912 12.912 0 0 1 1.172 2.6c.12.328.239.657.37.985a.4.4 0 0 1-.371.549" transform="translate(-1030.864 -.001)" style="fill:#535e76"/>
        <path data-name="パス 4133" d="M1250.082 138.607a.4.4 0 0 1-.326-.168 7.287 7.287 0 0 1-1.06-3.45 6.138 6.138 0 0 0-.891-2.969.4.4 0 0 1 .641-.481 6.819 6.819 0 0 1 1.043 3.347 6.585 6.585 0 0 0 .919 3.089.4.4 0 0 1-.326.633" transform="translate(-1148.164 -120.896)" style="fill:#535e76"/>
        <path data-name="パス 4134" d="M1054.83 139.383a.389.389 0 0 1-.057 0 .4.4 0 0 1-.34-.453 14.391 14.391 0 0 1 .786-2.82c.21-.59.428-1.2.584-1.827a.4.4 0 1 1 .777.194c-.166.665-.39 1.294-.606 1.9a13.51 13.51 0 0 0-.748 2.664.4.4 0 0 1-.4.344" transform="translate(-970.291 -123.286)" style="fill:#535e76"/>
        <path data-name="パス 4135" d="M1032.017 93.865a.4.4 0 0 1-.4-.4 5.661 5.661 0 0 0-.454-1.82 7.074 7.074 0 0 1-.519-2.055 25.071 25.071 0 0 1 .7-6.6.4.4 0 1 1 .78.177 24.318 24.318 0 0 0-.678 6.387 6.53 6.53 0 0 0 .473 1.819 6.3 6.3 0 0 1 .5 2.092.4.4 0 0 1-.4.4" transform="translate(-948.386 -76.081)" style="fill:#535e76"/>
        <path data-name="パス 4136" d="M1042.342 18.234a.4.4 0 0 1-.192-.751c.631-.346 1.211-.722 1.773-1.085a12.846 12.846 0 0 1 3.957-1.944.4.4 0 0 1 .2.776 12.218 12.218 0 0 0-3.719 1.84c-.573.371-1.166.755-1.823 1.116a.4.4 0 0 1-.192.049" transform="translate(-958.8 -13.288)" style="fill:#535e76"/>
        <path data-name="パス 4137" d="M754.1 753.338h-.013a.4.4 0 0 1-.387-.412 64.569 64.569 0 0 0-.62-9.063c-.719-5.665-2.276-13.742-2.292-13.823a.4.4 0 0 1 .786-.152c.016.081 1.577 8.183 2.3 13.874a65.535 65.535 0 0 1 .626 9.188.4.4 0 0 1-.4.388" transform="translate(-690.872 -671.348)" style="fill:#535e76"/>
        <path data-name="パス 4138" d="M1127.351 1044.363a.4.4 0 0 1-.4-.369s-.24-3.048-.5-7.168a.4.4 0 0 1 .374-.425.415.415 0 0 1 .425.374c.264 4.113.5 7.156.5 7.157a.4.4 0 0 1-.367.43h-.032" transform="translate(-1036.563 -953.701)" style="fill:#535e76"/>
        <path data-name="パス 4139" d="m1119.36 902.794-.048-1.109a.4.4 0 0 1 .384-.416.394.394 0 0 1 .417.384l.045 1.051-.4.072z" transform="translate(-1029.997 -829.352)" style="fill:#535e76"/>
        <path data-name="パス 4140" d="M1117.2 731.763a.4.4 0 0 1-.4-.389c-.177-6.509-.1-11.554-.1-11.6a.4.4 0 0 1 .4-.394h.006a.4.4 0 0 1 .394.407c0 .05-.08 5.078.1 11.569a.4.4 0 0 1-.389.411z" transform="translate(-1027.582 -661.973)" style="fill:#535e76"/>
        <path data-name="パス 4141" d="M758.271 714.081a20.511 20.511 0 0 1-4.4-.359.4.4 0 0 1 .188-.778 26.543 26.543 0 0 0 7.125.229c.992-.07 2.45-.289 4.139-.543 2.561-.385 5.747-.864 8.618-1.006a49.4 49.4 0 0 1 9.12.428.4.4 0 0 1-.128.79 48.109 48.109 0 0 0-8.953-.419c-2.831.139-5.995.615-8.538 1-1.706.256-3.179.478-4.2.55-1.12.079-2.11.109-2.972.109" transform="translate(-693.437 -654.793)" style="fill:#535e76"/>
        <path data-name="パス 4142" d="m840.489 1125.514-.048-.8s9.7-.584 15.067-.9a39.373 39.373 0 0 1 8.445.372.4.4 0 0 1-.142.788 39 39 0 0 0-8.256-.361c-5.364.318-15.066.9-15.066.9" transform="translate(-773.378 -1034.072)" style="fill:#535e76"/>
        <path data-name="パス 4143" d="M788.332 707.127c-2.285 0-4.535-.106-6.717-.317a11.393 11.393 0 0 1-1.649-.333 7.423 7.423 0 0 0-1.982-.331h-.012a.4.4 0 0 1-.012-.8 8.558 8.558 0 0 1 2.2.355 10.612 10.612 0 0 0 1.529.312 70.271 70.271 0 0 0 8.884.279h.013a.4.4 0 0 1 .012.8q-1.139.035-2.269.034" transform="translate(-715.525 -649.063)" style="fill:#535e76"/>
        <path data-name="パス 4144" d="M776.276 708.842a.4.4 0 0 1-.376-.262 5.11 5.11 0 0 1-.288-1.7.4.4 0 0 1 .389-.412.41.41 0 0 1 .412.388 4.362 4.362 0 0 0 .239 1.449.4.4 0 0 1-.238.514.4.4 0 0 1-.138.024" transform="translate(-713.722 -650.095)" style="fill:#535e76"/>
        <path data-name="パス 4145" d="M976.185 1131.443a3 3 0 0 1-.442-.041 45.377 45.377 0 0 1-1.552-.256 46.982 46.982 0 0 0-1.384-.232l-1.108-.167c-1.391-.211-2.705-.411-4.071-.525a14.13 14.13 0 0 1-.893-.111 9.179 9.179 0 0 0-1.289-.127.4.4 0 0 1 0-.8 9.841 9.841 0 0 1 1.4.136c.283.041.566.083.844.106 1.392.116 2.781.326 4.125.53l1.1.166c.47.069.938.152 1.407.235.491.087.983.175 1.474.245a1.56 1.56 0 0 0 .506.027c0-.022.02-.251.035-.388a2.533 2.533 0 0 1 .09-.517.4.4 0 1 1 .76.254 2 2 0 0 0-.053.345 1.727 1.727 0 0 1-.208.792.844.844 0 0 1-.749.328" transform="translate(-888.042 -1039.081)" style="fill:#535e76"/>
        <path data-name="パス 4146" d="M606.354 313.086h-.006a.4.4 0 0 1-.394-.406 17.3 17.3 0 0 0-.265-4.408.4.4 0 0 1 .764-.237 17.61 17.61 0 0 1 .3 4.657.4.4 0 0 1-.4.394" transform="translate(-557.341 -283.196)" style="fill:#535e76"/>
        <path data-name="パス 4147" d="M433.006 428.725c-2.576 0-5.051-2-6.717-3.547a.4.4 0 1 1 .544-.587c1.638 1.516 4.1 3.5 6.488 3.322 4.029-.314 7.858-6.182 7.59-11.628a.4.4 0 1 1 .8-.04c.294 5.941-3.831 12.115-8.326 12.465-.127.01-.252.014-.378.014" transform="translate(-392.156 -382.681)" style="fill:#535e76"/>
        <path data-name="パス 4148" d="M333.233 382.858a2.527 2.527 0 0 1-2.039-1.013 4.917 4.917 0 0 1-.739-4.026 1.7 1.7 0 0 1 1.342-1.277 2.161 2.161 0 0 1 2.067.873.4.4 0 1 1-.646.473 1.368 1.368 0 0 0-1.28-.558.9.9 0 0 0-.715.709 4.1 4.1 0 0 0 .6 3.311 1.746 1.746 0 0 0 1.5.707.381.381 0 0 1 .417.382.4.4 0 0 1-.381.417h-.128" transform="translate(-303.949 -346.469)" style="fill:#535e76"/>
        <path data-name="パス 4149" d="M351.168 411.912a.4.4 0 0 1-.349-.2c-.2-.356-.558-.743-.873-.719a.378.378 0 0 1-.417-.382.4.4 0 0 1 .381-.418 1.927 1.927 0 0 1 1.608 1.127.4.4 0 0 1-.349.6" transform="translate(-321.637 -377.456)" style="fill:#535e76"/>
        <path data-name="パス 4150" d="M511.283 396.985c-.006-.155.063-.284.156-.289s.174.118.181.273-.062.284-.156.289-.174-.118-.181-.273" transform="translate(-470.485 -365.042)" style="fill:#fff;fill-rule:evenodd"/>
        <path data-name="パス 4151" d="M506.835 393.045a.625.625 0 0 1-.573-.654.619.619 0 0 1 .54-.7.54.54 0 0 1 .376.141.792.792 0 0 1 .047 1.046.524.524 0 0 1-.365.174h-.024" transform="translate(-465.864 -360.428)" style="fill:#535e76"/>
        <path data-name="パス 4152" d="M596.551 400.045c-.007-.155.063-.284.156-.288s.174.118.181.274-.063.284-.156.288-.174-.118-.181-.273" transform="translate(-548.949 -367.858)" style="fill:#fff;fill-rule:evenodd"/>
        <path data-name="パス 4153" d="M592.112 396.107a.546.546 0 0 1-.451-.256.781.781 0 0 1-.124-.4.618.618 0 0 1 .537-.706.608.608 0 0 1 .6.653.742.742 0 0 1-.176.535.521.521 0 0 1-.364.173h-.022" transform="translate(-544.334 -363.246)" style="fill:#535e76"/>
        <path data-name="パス 4154" d="M489.976 352.451a.4.4 0 0 1-.2-.749 3.777 3.777 0 0 1 2.836-.434.4.4 0 0 1-.278.75 3.079 3.079 0 0 0-2.165.381.4.4 0 0 1-.2.052" transform="translate(-450.51 -323.121)" style="fill:#535e76"/>
        <path data-name="パス 4155" d="M584.739 357.182a.4.4 0 0 1-.251-.089c-.288-.232-.879-.157-1.312-.1l-.217.026a.408.408 0 0 1-.441-.354.4.4 0 0 1 .355-.441l.2-.025a2.514 2.514 0 0 1 1.914.274.4.4 0 0 1-.251.712" transform="translate(-536.034 -327.716)" style="fill:#535e76"/>
        <path data-name="パス 4156" d="M557.808 397.771a.388.388 0 0 1-.31-.621 2.276 2.276 0 0 0 .3-.385 1.33 1.33 0 0 0 .184-.965.89.89 0 0 0-.2-.231 1.423 1.423 0 0 1-.46-.652 2.831 2.831 0 0 1-.031-1.33l.034-.242a.4.4 0 0 1 .794.1l-.035.258a2.11 2.11 0 0 0 0 .977.69.69 0 0 0 .237.3 1.586 1.586 0 0 1 .38.462 2.084 2.084 0 0 1-.187 1.687 2.505 2.505 0 0 1-.356.488.465.465 0 0 1-.345.155" transform="translate(-512.755 -361.633)" style="fill:#535e76"/>
        <path data-name="パス 4157" d="M340.558 485.365a.4.4 0 0 1-.306-.658c1.259-1.493 1.412-3.3 1.576-5.223.056-.664.114-1.35.223-2.018a.4.4 0 1 1 .789.128 28.76 28.76 0 0 0-.215 1.957c-.166 1.958-.338 3.983-1.762 5.671a.4.4 0 0 1-.306.142" transform="translate(-313.015 -439.058)" style="fill:#535e76"/>
        <path data-name="パス 4158" d="M516.181 574.859a.4.4 0 0 1-.382-.281l-.027-.087c-.542-1.725-1.282-4.088-.346-5.878a.4.4 0 0 1 .71.371c-.782 1.5-.1 3.677.4 5.268l.027.087a.4.4 0 0 1-.263.5.4.4 0 0 1-.12.018" transform="translate(-473.886 -523.043)" style="fill:#535e76"/>
        <path data-name="パス 4159" d="M2.959 630.706a.4.4 0 0 1-.341-.19c-2.985-4.848-2.826-10.434-2.353-14.758A111.419 111.419 0 0 1 2.4 604.022c.651-2.961 1.323-6.023 1.787-9.074.1-.678.2-1.37.288-2.069.522-3.906 1.062-7.944 3.5-11.111 1.708-2.221 4.149-2.959 6.51-3.673.926-.28 1.884-.57 2.8-.947 3.059-1.257 7.418-3.261 9.938-6.145a.4.4 0 0 1 .6.527c-2.632 3.012-7.1 5.071-10.236 6.359-.954.391-1.93.687-2.875.973-2.343.708-4.556 1.377-6.107 3.395-2.306 3-2.831 6.928-3.339 10.729-.094.7-.187 1.4-.291 2.084-.467 3.076-1.143 6.152-1.8 9.126a110.848 110.848 0 0 0-2.124 11.65C.6 620.042.441 625.455 3.3 630.1a.4.4 0 0 1-.341.61" transform="translate(0 -525.314)" style="fill:#535e76"/>
        <path data-name="パス 4160" d="M49.34 1153.406c-.158 0-.314 0-.47-.01a.4.4 0 1 1 .033-.8c3.417.14 7.428-1.394 10.646-2.626l.739-.282a117.672 117.672 0 0 0 11.92-5.582 118.061 118.061 0 0 1 11.957-5.6.4.4 0 1 1 .284.748 117.508 117.508 0 0 0-11.874 5.561 118.471 118.471 0 0 1-12 5.618l-.737.281c-3.144 1.2-7.024 2.687-10.494 2.687" transform="translate(-44.616 -1047.639)" style="fill:#535e76"/>
        <path data-name="パス 4161" d="M106.84 1058.948a.4.4 0 0 1-.244-.718c2.135-1.639 5.37-2.124 8.224-2.552.929-.14 1.807-.271 2.608-.434a156.2 156.2 0 0 0 20-5.472.4.4 0 0 1 .261.757 157.027 157.027 0 0 1-20.1 5.5c-.821.168-1.709.3-2.649.442-2.758.413-5.883.882-7.855 2.395a.4.4 0 0 1-.244.083" transform="translate(-97.946 -965.986)" style="fill:#535e76"/>
        <path data-name="パス 4162" d="M169.048 932.283h-.029a.4.4 0 0 1-.371-.427 56.166 56.166 0 0 1 1.123-7.208l.152-.755a39.906 39.906 0 0 1 1.94-6.251 85.94 85.94 0 0 0 1.014-2.826.4.4 0 0 1 .76.253 85.23 85.23 0 0 1-1.024 2.852 39.3 39.3 0 0 0-1.9 6.129l-.152.757a55.5 55.5 0 0 0-1.109 7.106.4.4 0 0 1-.4.372" transform="translate(-155.19 -841.566)" style="fill:#535e76"/>
        <path data-name="パス 4163" d="M622.143 717.183h-.026a.4.4 0 0 1-.374-.425c.017-.269.038-.557.06-.86.156-2.124.37-5.032-.474-6.583a10.808 10.808 0 0 0-3.237-3.132l-.36-.264a24.98 24.98 0 0 1-1.828-1.508.4.4 0 1 1 .535-.595 24.084 24.084 0 0 0 1.77 1.459l.357.262a11.386 11.386 0 0 1 3.469 3.4c.955 1.758.732 4.8.569 7.024-.023.3-.043.586-.06.853a.4.4 0 0 1-.4.375" transform="translate(-566.634 -647.56)" style="fill:#535e76"/>
        <path data-name="パス 4164" d="M641.933 847.317a.4.4 0 0 1-.385-.509 10.922 10.922 0 0 0 .044-5.116 10.159 10.159 0 0 1-.189-3.19 25.544 25.544 0 0 1 .916-4.25.4.4 0 1 1 .755.264 25.284 25.284 0 0 0-.88 4.106 9.611 9.611 0 0 0 .188 2.942 11.736 11.736 0 0 1-.063 5.462.4.4 0 0 1-.385.292" transform="translate(-590.163 -767.435)" style="fill:#535e76"/>
        <path data-name="パス 4165" d="M189.872 1034.914h-.038a.4.4 0 0 1-.362-.435 15.3 15.3 0 0 0-1.369-7.246.4.4 0 1 1 .721-.347 16.181 16.181 0 0 1 1.445 7.667.4.4 0 0 1-.4.363" transform="translate(-173.057 -944.736)" style="fill:#535e76"/>
        <path data-name="パス 4166" d="M114.811 1310.111h-.037a.4.4 0 0 1-.362-.435 86.539 86.539 0 0 1 3.678-17.131c.212-.712.377-1.472.551-2.278a20.142 20.142 0 0 1 1.062-3.742.4.4 0 1 1 .733.322 19.506 19.506 0 0 0-1.013 3.589c-.17.784-.346 1.6-.566 2.336a85.79 85.79 0 0 0-3.648 16.977.4.4 0 0 1-.4.364" transform="translate(-105.28 -1183.646)" style="fill:#535e76"/>
        <path data-name="パス 4167" d="M611.864 1198.577a.4.4 0 0 1-.4-.394 42.338 42.338 0 0 0-1.859-11.744c-.683-2.469-1.57-4.956-2.429-7.361a77.613 77.613 0 0 1-3.155-10.338 44.6 44.6 0 0 1-.636-7.709c-.033-1.23-.066-2.5-.139-3.844a.4.4 0 0 1 .378-.422.377.377 0 0 1 .421.378c.074 1.352.108 2.631.14 3.867a43.287 43.287 0 0 0 .621 7.57 76.778 76.778 0 0 0 3.125 10.229c.863 2.419 1.756 4.92 2.446 7.417a43.036 43.036 0 0 1 1.888 11.945.4.4 0 0 1-.394.406z" transform="translate(-555.109 -1064.459)" style="fill:#535e76"/>
        <path data-name="パス 4168" d="M150.911 1489.93a48.39 48.39 0 0 1-10.426-1.126l-.258-.057a44.036 44.036 0 0 1-7.537-2.135c-.166-.069-.356-.135-.556-.206a3.969 3.969 0 0 1-1.974-1.141.4.4 0 1 1 .65-.467 3.492 3.492 0 0 0 1.589.852c.214.075.419.147.6.221a42.769 42.769 0 0 0 7.4 2.092l.258.057a49.663 49.663 0 0 0 21.968-.256l.735-.168c3.273-.745 6.981-1.591 9.719-3.559a.4.4 0 1 1 .467.65c-2.868 2.063-6.662 2.927-10.009 3.69l-.733.168a52.954 52.954 0 0 1-11.893 1.383" transform="translate(-119.704 -1365.551)" style="fill:#535e76"/>
        <path data-name="パス 4169" d="M493.168 1002.847a.4.4 0 0 1-.165-.765c.774-.35 1.569-.749 2.41-1.172 3.536-1.776 7.546-3.787 11.3-2.591a.4.4 0 1 1-.242.763c-3.449-1.1-7.3.836-10.7 2.543-.849.426-1.651.829-2.439 1.186a.4.4 0 0 1-.165.036" transform="translate(-453.447 -918.326)" style="fill:#535e76"/>
        <path data-name="パス 4170" d="M495.5 1116.405a.4.4 0 0 1-.109-.786 4.122 4.122 0 0 0 2.65-1.7.4.4 0 1 1 .7.395 4.851 4.851 0 0 1-3.128 2.078.4.4 0 0 1-.109.015" transform="translate(-455.596 -1024.846)" style="fill:#535e76"/>
        <path data-name="パス 4171" d="M664.152 1104.1a14.98 14.98 0 0 1-3.058-.555c-.26-.064-.476-.117-.622-.148a.4.4 0 0 1 .166-.783c.152.032.378.088.648.155a11.44 11.44 0 0 0 3.156.5.393.393 0 0 1 .555.071.408.408 0 0 1-.074.568 1.235 1.235 0 0 1-.771.191" transform="translate(-607.478 -1014.62)" style="fill:#535e76"/>
        <path data-name="パス 4172" d="M639.019 1072.3a.4.4 0 0 1-.295-.671.289.289 0 0 0 .055-.076c-.082-.183-.945-.49-1.314-.622l-.337-.123a13.586 13.586 0 0 1-1.493-.72 6.528 6.528 0 0 0-2.992-1.063.378.378 0 0 1-.418-.382.4.4 0 0 1 .382-.417 7.239 7.239 0 0 1 3.4 1.156 13.2 13.2 0 0 0 1.4.678l.323.117c.783.279 1.67.595 1.822 1.208a.828.828 0 0 1-.242.786.4.4 0 0 1-.295.129" transform="translate(-581.776 -982.987)" style="fill:#535e76"/>
        <path data-name="パス 4173" d="M638.507 1045.294c-.546 0-1.239-.7-2.19-1.663a18.894 18.894 0 0 0-1.845-1.712 7.127 7.127 0 0 0-2.833-.714.4.4 0 1 1 .033-.8 7.676 7.676 0 0 1 3.283.875 19.475 19.475 0 0 1 1.931 1.788 8.637 8.637 0 0 0 1.587 1.411.4.4 0 0 1 .415.678.6.6 0 0 1-.381.136" transform="translate(-580.884 -957.386)" style="fill:#535e76"/>
        <path data-name="パス 4174" d="M641.673 1022.058a.4.4 0 0 1-.365-.235l-.2-.442c-.612-1.376-1.537-3.456-2.6-4.192a6.469 6.469 0 0 0-2.26-.8 11.241 11.241 0 0 1-1.482-.4.4.4 0 0 1 .283-.749 10.406 10.406 0 0 0 1.375.372 7.047 7.047 0 0 1 2.541.926c1.246.864 2.226 3.067 2.874 4.525l.2.437a.4.4 0 0 1-.2.529.4.4 0 0 1-.165.036" transform="translate(-583.879 -934.199)" style="fill:#535e76"/>
        <path data-name="パス 4175" d="M664.388 1005.915a.4.4 0 0 1-.3-.141 4.628 4.628 0 0 1-.492-.768 2.677 2.677 0 0 0-1.167-1.313.4.4 0 0 1 .319-.734 3.39 3.39 0 0 1 1.548 1.659 4.2 4.2 0 0 0 .4.638.4.4 0 0 1-.3.659" transform="translate(-609.345 -922.897)" style="fill:#535e76"/>
        <path data-name="パス 4176" d="M689.688 875.551h-.043a.4.4 0 0 1-.356-.441 36.288 36.288 0 0 0 .011-5.533 37.362 37.362 0 0 1 .018-5.766.41.41 0 0 1 .44-.355.4.4 0 0 1 .356.44 36.852 36.852 0 0 0-.014 5.642 36.856 36.856 0 0 1-.015 5.657.4.4 0 0 1-.4.358" transform="translate(-634.202 -794.553)" style="fill:#535e76"/>
        <path data-name="パス 4177" d="M616.495 1137.173a.4.4 0 0 1-.086-.791c.96-.21 1.8-1.44 2.42-2.339l.16-.233c2.176-3.141 2.81-6.754 3.144-9.873a.408.408 0 0 1 .44-.355.4.4 0 0 1 .356.44 21.478 21.478 0 0 1-3.281 10.244l-.159.23c-.692 1.008-1.639 2.389-2.908 2.667a.4.4 0 0 1-.086.009" transform="translate(-566.933 -1033.924)" style="fill:#535e76"/>
        <path data-name="パス 4178" d="M595.639 1015.315a.4.4 0 0 1-.216-.063c-.288-.185-.622-.376-.971-.577a10.117 10.117 0 0 1-2.79-2.038 3.018 3.018 0 0 1-.524-1.437 4.121 4.121 0 0 0-.165-.708 19.482 19.482 0 0 0-1.35-2.846 4.807 4.807 0 0 0-.662-.973 7.838 7.838 0 0 0 .074 1.574c.048.268.095.568.145.888.267 1.728.633 4.094 1.949 4.938a.4.4 0 1 1-.431.674c-1.62-1.039-2.017-3.611-2.308-5.489a35.784 35.784 0 0 0-.141-.868c0-.019-.321-1.952.159-2.47a.548.548 0 0 1 .453-.173c.573.062 1.034.75 1.448 1.485a20.431 20.431 0 0 1 1.414 2.98 4.793 4.793 0 0 1 .2.849 2.352 2.352 0 0 0 .358 1.073 9.616 9.616 0 0 0 2.565 1.847c.361.208.707.406 1 .6a.4.4 0 0 1-.216.737" transform="translate(-541.211 -925.49)" style="fill:#535e76"/>
        <path data-name="パス 4179" d="M569.945 1021.4a.4.4 0 0 1-.375-.261 2.261 2.261 0 0 0-.44-.63 3.133 3.133 0 0 1-.628-.947 17.014 17.014 0 0 1-.814-4.811 3.309 3.309 0 0 1 .607-2.6 1.286 1.286 0 0 1 1.059-.336.4.4 0 0 1 .356.441.408.408 0 0 1-.44.355.489.489 0 0 0-.422.12 2.805 2.805 0 0 0-.36 1.97 16.3 16.3 0 0 0 .766 4.578 2.426 2.426 0 0 0 .482.7 2.9 2.9 0 0 1 .585.875.4.4 0 0 1-.236.515.391.391 0 0 1-.139.025" transform="translate(-522.375 -931.069)" style="fill:#535e76"/>
        <path data-name="パス 4180" d="M551.306 1031.205a.4.4 0 0 1-.36-.225 9.994 9.994 0 0 1-1.082-6.722l.036-.185c.135-.717.385-2.211 1.508-2.093a.4.4 0 0 1-.086.8c-.243-.026-.45.462-.635 1.446l-.039.2a9.249 9.249 0 0 0 1.019 6.209.4.4 0 0 1-.36.575" transform="translate(-505.808 -940.425)" style="fill:#535e76"/>
        <path data-name="パス 4181" d="M542.769 1050.836a5.422 5.422 0 0 1-2.307-.662c-.39-.178-.793-.362-1.259-.523-2.055-.712-3.653-1.449-3.99-3.871a9.753 9.753 0 0 1 .3-3.95c.009-.034.019-.089.031-.157.1-.52.254-1.384.918-1.319a.4.4 0 0 1 .047.788 3.249 3.249 0 0 0-.178.677 3.95 3.95 0 0 1-.044.217 8.856 8.856 0 0 0-.284 3.634c.276 1.985 1.491 2.543 3.46 3.224.5.174.941.375 1.329.551a3.526 3.526 0 0 0 3.47.231.4.4 0 1 1 .32.733 4.48 4.48 0 0 1-1.815.427" transform="translate(-492.427 -957.336)" style="fill:#535e76"/>
        <path data-name="パス 4182" d="M397.283 243.312a.4.4 0 0 1-.042-.8c2.081-.224 3.778-.5 5.115-1.819.575-.567 1.1-1.2 1.614-1.814a19.043 19.043 0 0 1 2.339-2.484c.625-.524 1.67-1.4 2.8-1.221a.4.4 0 1 1-.127.79c-.765-.125-1.637.608-2.158 1.044a18.174 18.174 0 0 0-2.239 2.383c-.523.628-1.064 1.277-1.666 1.872-1.519 1.5-3.43 1.812-5.592 2.044h-.044" transform="translate(-365.214 -216.388)" style="fill:#535e76"/>
        <path data-name="パス 4183" d="M392.366 342.052a.4.4 0 0 1-.055-.8c1.883-.264 2.99-1.342 4.265-3.116a.4.4 0 0 1 .65.467c-1.12 1.558-2.413 3.106-4.8 3.442a.4.4 0 0 1-.056 0" transform="translate(-360.689 -311.003)" style="fill:#535e76"/>
        <path data-name="パス 4184" d="M569.138 247.173a.4.4 0 0 1-.394-.335c-.252-1.54-1.53-4.427-3.075-4.454a.4.4 0 0 1-.393-.407.391.391 0 0 1 .407-.393c2.134.037 3.561 3.356 3.85 5.124a.4.4 0 0 1-.33.46.409.409 0 0 1-.066.005" transform="translate(-520.17 -222.306)" style="fill:#535e76"/>
        <path data-name="パス 4185" d="M329.7 166.52a.4.4 0 0 1-.288-.677 17.544 17.544 0 0 1 3.985-3.274c5.543-3.107 10.416-.324 13.527 2.559a.4.4 0 1 1-.544.587c-2.916-2.7-7.468-5.319-12.592-2.448a16.859 16.859 0 0 0-3.8 3.13.4.4 0 0 1-.288.123" transform="translate(-303.019 -148.341)" style="fill:#535e76"/>
        <path data-name="パス 4186" d="M257.326 271.764a.4.4 0 0 1-.344-.6c2-3.382 1.888-7.049 1.8-9.726l-.015-.48c-.021-.747-.051-1.521-.081-2.316-.228-5.929-.512-13.308 2.587-18.474a.4.4 0 0 1 .686.412c-2.976 4.961-2.709 11.905-2.474 18.031.031.8.06 1.574.082 2.324l.014.478c.088 2.776.206 6.577-1.917 10.16a.4.4 0 0 1-.344.2" transform="translate(-236.424 -220.823)" style="fill:#535e76"/>
        <path data-name="パス 4187" d="M486.363 185.5a.392.392 0 0 1-.188-.047.4.4 0 0 1-.166-.541c2.765-5.2-.4-12.559-4.972-15.91a10.473 10.473 0 0 0-2.5-1.31 17.189 17.189 0 0 0-3.526-.63.4.4 0 0 1 .048-.8 17.846 17.846 0 0 1 3.725.667 11.26 11.26 0 0 1 2.722 1.426c4.835 3.544 8.162 11.37 5.2 16.931a.4.4 0 0 1-.353.212" transform="translate(-436.766 -152.995)" style="fill:#535e76"/>
        <path data-name="パス 4188" d="M565.176 586.248a.408.408 0 0 1-.13-.021.4.4 0 0 1-.249-.508c.886-2.588 1.791-5.959.922-9.079a22.023 22.023 0 0 0-1.337-3.257c-1.005-2.136-2.044-4.344-1.792-6.454a.4.4 0 1 1 .794.095c-.224 1.882.765 3.985 1.721 6.019a22.52 22.52 0 0 1 1.384 3.383c.928 3.332-.013 6.856-.936 9.553a.4.4 0 0 1-.378.27" transform="translate(-517.663 -521.366)" style="fill:#535e76"/>
        <path data-name="パス 4189" d="M528.17 657.91a.4.4 0 0 1-.4-.355 20.252 20.252 0 0 1-.05-3.994 26.345 26.345 0 0 0 .056-3.166c-.141-3.027-1.035-5.709-2.283-9.169a.4.4 0 0 1 .753-.271c1.272 3.526 2.183 6.264 2.328 9.4a27.017 27.017 0 0 1-.056 3.254 19.533 19.533 0 0 0 .047 3.854.4.4 0 0 1-.353.443h-.045" transform="translate(-483.542 -589.565)" style="fill:#535e76"/>
        <path data-name="パス 4190" d="M577.319 783.067a.4.4 0 0 1-.394-.336 14.927 14.927 0 0 1 .2-4.812c.077-.5.154-1.012.216-1.533a.411.411 0 0 1 .444-.35.4.4 0 0 1 .35.445 45.356 45.356 0 0 1-.22 1.559 14.364 14.364 0 0 0-.206 4.564.4.4 0 0 1-.331.459.391.391 0 0 1-.064.005" transform="translate(-530.776 -714.109)" style="fill:#535e76"/>
        <path data-name="パス 4191" d="M311.744 625.676c-5.333 0-10.03-6.159-12.2-9.006-.358-.47-.684-.859-1.006-1.244a30.815 30.815 0 0 1-1.094-1.362.4.4 0 0 1 .641-.48c.377.5.72.913 1.067 1.328.33.394.663.792 1.029 1.272 3.728 4.888 8.66 10.245 13.775 8.274a5.685 5.685 0 0 0 1.93-1.1 3.766 3.766 0 0 0 1.29-2.086.4.4 0 0 1 .8.092 4.472 4.472 0 0 1-1.535 2.576 6.383 6.383 0 0 1-2.192 1.265 6.885 6.885 0 0 1-2.5.471" transform="translate(-273.635 -564.476)" style="fill:#535e76"/>
        <path data-name="パス 4192" d="M7.15 1112.228a.4.4 0 0 1-.216-.737 7.632 7.632 0 0 1 3.4-1.084c2.158-.253 6.274-.452 9.582 1.051a.4.4 0 0 1-.331.728c-3.13-1.421-7.079-1.225-9.158-.984a6.911 6.911 0 0 0-3.064.963.4.4 0 0 1-.216.063" transform="translate(-6.211 -1021.64)" style="fill:#535e76"/>
        <path data-name="パス 4193" d="M1119.75 348.814a4.442 4.442 0 0 1-3.11-1.668c-.466-.575-.406-.856-.387-.949.092-.425.5-.338.929-.248a11.246 11.246 0 0 0 2.378.291 14.033 14.033 0 0 0 2.967-.347.4.4 0 0 1 .441.592c-.056.095-1.394 2.331-3.218 2.331m-2.342-2a3.627 3.627 0 0 0 2.342 1.2 2.913 2.913 0 0 0 1.943-1.148 14.165 14.165 0 0 1-2.133.174 11.261 11.261 0 0 1-2.152-.228" transform="translate(-1027.169 -318.275)" style="fill:#535e76"/>
        <path data-name="パス 4194" d="M509.437 490.541a2.848 2.848 0 0 1-.354-.022c-1.845-.228-2.433-2.373-2.457-2.464a.4.4 0 0 1 .479-.492c.011 0 1.068.252 2.362.424 1.165.155 2.149.308 2.149.308a.4.4 0 0 1 .309.547 2.773 2.773 0 0 1-2.488 1.7m-1.769-2.04a2.108 2.108 0 0 0 1.513 1.224A1.83 1.83 0 0 0 510.9 489c-.392-.058-.943-.137-1.543-.217a29.006 29.006 0 0 1-1.692-.279" transform="translate(-466.187 -448.648)" style="fill:#535e76"/>
        <path data-name="パス 4195" d="M1161.959 651.448a.4.4 0 0 1-.4-.4c0-3.45-.271-6.917-.533-10.269-.264-3.381-.538-6.877-.538-10.385a.4.4 0 1 1 .8 0c0 3.477.272 6.958.536 10.323s.535 6.85.535 10.331a.4.4 0 0 1-.4.4" transform="translate(-1067.887 -579.723)" style="fill:#535e76"/>
        <path data-name="パス 4196" d="M1168.769 1103.277a.4.4 0 0 1-.4-.4 33.983 33.983 0 0 0-.585-5.42c-.181-1.113-.369-2.263-.483-3.413a66.922 66.922 0 0 1-.2-7.276c.019-2.037.037-4.142-.109-6.2a415.643 415.643 0 0 0-.236-3.085c-.26-3.287-.53-6.687-.53-9.948a.4.4 0 0 1 .8 0c0 3.23.268 6.613.527 9.885.082 1.037.163 2.07.237 3.091.15 2.088.13 4.21.111 6.263a66.561 66.561 0 0 0 .194 7.189c.112 1.126.3 2.264.477 3.365a34.543 34.543 0 0 1 .6 5.549.4.4 0 0 1-.4.4" transform="translate(-1073.167 -981.983)" style="fill:#535e76"/>
        <path data-name="パス 4197" d="M1056.9 259.329a3.611 3.611 0 0 1-3.787-3.4.4.4 0 0 1 .8 0 3.016 3.016 0 0 0 5.974 0 .4.4 0 0 1 .8 0 3.612 3.612 0 0 1-3.788 3.4" transform="translate(-969.076 -235.143)" style="fill:#535e76"/>
        <path data-name="パス 4198" d="M1176.177 260.97a3.694 3.694 0 0 1-3.926-3.4.4.4 0 0 1 .8 0 3.179 3.179 0 0 0 6.251 0 .4.4 0 1 1 .8 0 3.694 3.694 0 0 1-3.925 3.4" transform="translate(-1078.711 -236.653)" style="fill:#535e76"/>
        <path data-name="パス 4199" d="M1141.875 252.357a.4.4 0 0 1-.389-.308 2.546 2.546 0 0 0-1.926 0 .4.4 0 0 1-.789-.092c0-1.24 3.5-1.24 3.5 0a.4.4 0 0 1-.4.4" transform="translate(-1047.902 -230.997)" style="fill:#535e76"/>
        <path data-name="パス 4200" d="M1268.255 247.951a.4.4 0 0 1 0-.8c.243 0 .6-.041.969-.084a5.463 5.463 0 0 1 2.716.1.4.4 0 0 1-.358.716 5.344 5.344 0 0 0-2.265-.021 10.256 10.256 0 0 1-1.062.089" transform="translate(-1166.687 -227.245)" style="fill:#535e76"/>
    </g>
</svg>
